M48
; DRILL file {KiCad 6.0.9-8da3e8f707~117~ubuntu22.04.1} date Sat 24 Dec 2022 03:34:02 PM
; FORMAT={-:-/ absolute / metric / decimal}
; #@! TF.CreationDate,2022-12-24T15:34:02-08:00
; #@! TF.GenerationSoftware,Kicad,Pcbnew,6.0.9-8da3e8f707~117~ubuntu22.04.1
; #@! TF.FileFunction,MixedPlating,1,2
FMAT,2
METRIC
; #@! TA.AperFunction,Plated,PTH,ViaDrill
T1C0.400
; #@! TA.AperFunction,Plated,PTH,ComponentDrill
T2C1.016
; #@! TA.AperFunction,Plated,PTH,ViaDrill
T3C3.600
%
G90
G05
T1
X21.25Y-26.5
X22.5Y-26.5
X23.75Y-26.5
X32.0Y-17.0
X42.5Y-19.0
X44.5Y-19.5
X125.012Y-14.612
X125.75Y-13.0
X141.45Y-17.375
X141.45Y-19.575
X143.75Y-11.25
X144.0Y-19.0
X147.45Y-23.575
X147.725Y-8.946
X148.425Y-8.0
X148.75Y-15.0
X149.25Y-9.975
X150.0Y-15.0
X154.848Y-9.851
X155.85Y-14.775
X155.925Y-18.613
X156.0Y-17.375
X157.5Y-14.125
X157.575Y-18.377
X157.75Y-10.625
X159.25Y-10.625
X160.0Y-11.375
X161.675Y-10.635
X162.0Y-11.875
X163.25Y-11.125
X163.5Y-15.375
X163.5Y-16.625
X163.5Y-19.375
X163.65Y-12.775
X167.0Y-19.625
X167.113Y-15.205
X170.08Y-15.93
X171.5Y-11.5
X183.0Y-10.058
X194.0Y-10.0
X194.5Y-13.0
X203.0Y-19.0
X204.0Y-21.0
X281.25Y-17.75
X305.13Y-20.22
X305.13Y-21.42
T2
X37.52Y-13.75
X37.52Y-16.29
X40.06Y-13.75
X40.06Y-16.29
X42.6Y-13.75
X42.6Y-16.29
X117.52Y-13.75
X117.52Y-16.29
X120.06Y-13.75
X120.06Y-16.29
X122.6Y-13.75
X122.6Y-16.29
X197.52Y-13.75
X197.52Y-16.29
X200.06Y-13.75
X200.06Y-16.29
X202.6Y-13.75
X202.6Y-16.29
X277.52Y-13.75
X277.52Y-16.29
X280.06Y-13.75
X280.06Y-16.29
X282.6Y-13.75
X282.6Y-16.29
T3
X4.0Y-3.0
X4.0Y-27.0
X156.0Y-3.0
X156.0Y-27.0
X316.0Y-3.0
X316.0Y-27.0
T0
M30
