%TF.GenerationSoftware,KiCad,Pcbnew,5.1.7-a382d34a8~87~ubuntu20.04.1*%
%TF.CreationDate,2020-11-02T06:51:37-08:00*%
%TF.ProjectId,sao-wall,73616f2d-7761-46c6-9c2e-6b696361645f,rev?*%
%TF.SameCoordinates,Original*%
%TF.FileFunction,Legend,Bot*%
%TF.FilePolarity,Positive*%
%FSLAX46Y46*%
G04 Gerber Fmt 4.6, Leading zero omitted, Abs format (unit mm)*
G04 Created by KiCad (PCBNEW 5.1.7-a382d34a8~87~ubuntu20.04.1) date 2020-11-02 06:51:37*
%MOMM*%
%LPD*%
G01*
G04 APERTURE LIST*
%ADD10C,0.250000*%
%ADD11C,0.152400*%
%ADD12C,0.120000*%
%ADD13C,0.700000*%
%ADD14C,1.000000*%
%ADD15C,0.254000*%
%ADD16C,0.150000*%
G04 APERTURE END LIST*
D10*
X184095238Y-4309523D02*
X183904761Y-4404761D01*
X183523809Y-4404761D01*
X183333333Y-4309523D01*
X183238095Y-4119047D01*
X183238095Y-4023809D01*
X183333333Y-3833333D01*
X183523809Y-3738095D01*
X183809523Y-3738095D01*
X184000000Y-3642857D01*
X184095238Y-3452380D01*
X184095238Y-3357142D01*
X184000000Y-3166666D01*
X183809523Y-3071428D01*
X183523809Y-3071428D01*
X183333333Y-3166666D01*
X181523809Y-4404761D02*
X181523809Y-3357142D01*
X181619047Y-3166666D01*
X181809523Y-3071428D01*
X182190476Y-3071428D01*
X182380952Y-3166666D01*
X181523809Y-4309523D02*
X181714285Y-4404761D01*
X182190476Y-4404761D01*
X182380952Y-4309523D01*
X182476190Y-4119047D01*
X182476190Y-3928571D01*
X182380952Y-3738095D01*
X182190476Y-3642857D01*
X181714285Y-3642857D01*
X181523809Y-3547619D01*
X180285714Y-4404761D02*
X180476190Y-4309523D01*
X180571428Y-4214285D01*
X180666666Y-4023809D01*
X180666666Y-3452380D01*
X180571428Y-3261904D01*
X180476190Y-3166666D01*
X180285714Y-3071428D01*
X180000000Y-3071428D01*
X179809523Y-3166666D01*
X179714285Y-3261904D01*
X179619047Y-3452380D01*
X179619047Y-4023809D01*
X179714285Y-4214285D01*
X179809523Y-4309523D01*
X180000000Y-4404761D01*
X180285714Y-4404761D01*
X178761904Y-3642857D02*
X177238095Y-3642857D01*
X176476190Y-3071428D02*
X176095238Y-4404761D01*
X175714285Y-3452380D01*
X175333333Y-4404761D01*
X174952380Y-3071428D01*
X173333333Y-4404761D02*
X173333333Y-3357142D01*
X173428571Y-3166666D01*
X173619047Y-3071428D01*
X174000000Y-3071428D01*
X174190476Y-3166666D01*
X173333333Y-4309523D02*
X173523809Y-4404761D01*
X174000000Y-4404761D01*
X174190476Y-4309523D01*
X174285714Y-4119047D01*
X174285714Y-3928571D01*
X174190476Y-3738095D01*
X174000000Y-3642857D01*
X173523809Y-3642857D01*
X173333333Y-3547619D01*
X172095238Y-4404761D02*
X172285714Y-4309523D01*
X172380952Y-4119047D01*
X172380952Y-2404761D01*
X171047619Y-4404761D02*
X171238095Y-4309523D01*
X171333333Y-4119047D01*
X171333333Y-2404761D01*
X169047619Y-3071428D02*
X168285714Y-3071428D01*
X168761904Y-2404761D02*
X168761904Y-4119047D01*
X168666666Y-4309523D01*
X168476190Y-4404761D01*
X168285714Y-4404761D01*
X167333333Y-4404761D02*
X167523809Y-4309523D01*
X167619047Y-4214285D01*
X167714285Y-4023809D01*
X167714285Y-3452380D01*
X167619047Y-3261904D01*
X167523809Y-3166666D01*
X167333333Y-3071428D01*
X167047619Y-3071428D01*
X166857142Y-3166666D01*
X166761904Y-3261904D01*
X166666666Y-3452380D01*
X166666666Y-4023809D01*
X166761904Y-4214285D01*
X166857142Y-4309523D01*
X167047619Y-4404761D01*
X167333333Y-4404761D01*
X165809523Y-4404761D02*
X165809523Y-3071428D01*
X165809523Y-3261904D02*
X165714285Y-3166666D01*
X165523809Y-3071428D01*
X165238095Y-3071428D01*
X165047619Y-3166666D01*
X164952380Y-3357142D01*
X164952380Y-4404761D01*
X164952380Y-3357142D02*
X164857142Y-3166666D01*
X164666666Y-3071428D01*
X164380952Y-3071428D01*
X164190476Y-3166666D01*
X164095238Y-3357142D01*
X164095238Y-4404761D01*
X161904761Y-3452380D02*
X162000000Y-3357142D01*
X162190476Y-3261904D01*
X162380952Y-3261904D01*
X162571428Y-3357142D01*
X162666666Y-3452380D01*
X162761904Y-3642857D01*
X162761904Y-3833333D01*
X162666666Y-4023809D01*
X162571428Y-4119047D01*
X162380952Y-4214285D01*
X162190476Y-4214285D01*
X162000000Y-4119047D01*
X161904761Y-4023809D01*
X161904761Y-3261904D02*
X161904761Y-4023809D01*
X161809523Y-4119047D01*
X161714285Y-4119047D01*
X161523809Y-4023809D01*
X161428571Y-3833333D01*
X161428571Y-3357142D01*
X161619047Y-3071428D01*
X161904761Y-2880952D01*
X162285714Y-2785714D01*
X162666666Y-2880952D01*
X162952380Y-3071428D01*
X163142857Y-3357142D01*
X163238095Y-3738095D01*
X163142857Y-4119047D01*
X162952380Y-4404761D01*
X162666666Y-4595238D01*
X162285714Y-4690476D01*
X161904761Y-4595238D01*
X161619047Y-4404761D01*
X160857142Y-3071428D02*
X160095238Y-3071428D01*
X160571428Y-2404761D02*
X160571428Y-4119047D01*
X160476190Y-4309523D01*
X160285714Y-4404761D01*
X160095238Y-4404761D01*
X159142857Y-4404761D02*
X159333333Y-4309523D01*
X159428571Y-4214285D01*
X159523809Y-4023809D01*
X159523809Y-3452380D01*
X159428571Y-3261904D01*
X159333333Y-3166666D01*
X159142857Y-3071428D01*
X158857142Y-3071428D01*
X158666666Y-3166666D01*
X158571428Y-3261904D01*
X158476190Y-3452380D01*
X158476190Y-4023809D01*
X158571428Y-4214285D01*
X158666666Y-4309523D01*
X158857142Y-4404761D01*
X159142857Y-4404761D01*
X157619047Y-4404761D02*
X157619047Y-3071428D01*
X157619047Y-3261904D02*
X157523809Y-3166666D01*
X157333333Y-3071428D01*
X157047619Y-3071428D01*
X156857142Y-3166666D01*
X156761904Y-3357142D01*
X156761904Y-4404761D01*
X156761904Y-3357142D02*
X156666666Y-3166666D01*
X156476190Y-3071428D01*
X156190476Y-3071428D01*
X156000000Y-3166666D01*
X155904761Y-3357142D01*
X155904761Y-4404761D01*
X154952380Y-4404761D02*
X154952380Y-2404761D01*
X154761904Y-3642857D02*
X154190476Y-4404761D01*
X154190476Y-3071428D02*
X154952380Y-3833333D01*
X153333333Y-4214285D02*
X153238095Y-4309523D01*
X153333333Y-4404761D01*
X153428571Y-4309523D01*
X153333333Y-4214285D01*
X153333333Y-4404761D01*
X152380952Y-4404761D02*
X152380952Y-3071428D01*
X152380952Y-2404761D02*
X152476190Y-2500000D01*
X152380952Y-2595238D01*
X152285714Y-2500000D01*
X152380952Y-2404761D01*
X152380952Y-2595238D01*
X151428571Y-3071428D02*
X151428571Y-4404761D01*
X151428571Y-3261904D02*
X151333333Y-3166666D01*
X151142857Y-3071428D01*
X150857142Y-3071428D01*
X150666666Y-3166666D01*
X150571428Y-3357142D01*
X150571428Y-4404761D01*
X148095238Y-4404761D02*
X148095238Y-2404761D01*
X146952380Y-4404761D01*
X146952380Y-2404761D01*
X145714285Y-4404761D02*
X145904761Y-4309523D01*
X146000000Y-4214285D01*
X146095238Y-4023809D01*
X146095238Y-3452380D01*
X146000000Y-3261904D01*
X145904761Y-3166666D01*
X145714285Y-3071428D01*
X145428571Y-3071428D01*
X145238095Y-3166666D01*
X145142857Y-3261904D01*
X145047619Y-3452380D01*
X145047619Y-4023809D01*
X145142857Y-4214285D01*
X145238095Y-4309523D01*
X145428571Y-4404761D01*
X145714285Y-4404761D01*
X144380952Y-3071428D02*
X143904761Y-4404761D01*
X143428571Y-3071428D01*
X142761904Y-2595238D02*
X142666666Y-2500000D01*
X142476190Y-2404761D01*
X142000000Y-2404761D01*
X141809523Y-2500000D01*
X141714285Y-2595238D01*
X141619047Y-2785714D01*
X141619047Y-2976190D01*
X141714285Y-3261904D01*
X142857142Y-4404761D01*
X141619047Y-4404761D01*
X140380952Y-2404761D02*
X140190476Y-2404761D01*
X140000000Y-2500000D01*
X139904761Y-2595238D01*
X139809523Y-2785714D01*
X139714285Y-3166666D01*
X139714285Y-3642857D01*
X139809523Y-4023809D01*
X139904761Y-4214285D01*
X140000000Y-4309523D01*
X140190476Y-4404761D01*
X140380952Y-4404761D01*
X140571428Y-4309523D01*
X140666666Y-4214285D01*
X140761904Y-4023809D01*
X140857142Y-3642857D01*
X140857142Y-3166666D01*
X140761904Y-2785714D01*
X140666666Y-2595238D01*
X140571428Y-2500000D01*
X140380952Y-2404761D01*
X138952380Y-2595238D02*
X138857142Y-2500000D01*
X138666666Y-2404761D01*
X138190476Y-2404761D01*
X138000000Y-2500000D01*
X137904761Y-2595238D01*
X137809523Y-2785714D01*
X137809523Y-2976190D01*
X137904761Y-3261904D01*
X139047619Y-4404761D01*
X137809523Y-4404761D01*
X136571428Y-2404761D02*
X136380952Y-2404761D01*
X136190476Y-2500000D01*
X136095238Y-2595238D01*
X136000000Y-2785714D01*
X135904761Y-3166666D01*
X135904761Y-3642857D01*
X136000000Y-4023809D01*
X136095238Y-4214285D01*
X136190476Y-4309523D01*
X136380952Y-4404761D01*
X136571428Y-4404761D01*
X136761904Y-4309523D01*
X136857142Y-4214285D01*
X136952380Y-4023809D01*
X137047619Y-3642857D01*
X137047619Y-3166666D01*
X136952380Y-2785714D01*
X136857142Y-2595238D01*
X136761904Y-2500000D01*
X136571428Y-2404761D01*
D11*
%TO.C,Q3*%
X188664240Y-10174500D02*
X189335760Y-10174500D01*
X190625600Y-10174500D02*
X190625600Y-11825500D01*
X190625600Y-11825500D02*
X189616740Y-11825500D01*
X187374400Y-11825500D02*
X187374400Y-10174500D01*
X188383260Y-11825500D02*
X187374400Y-11825500D01*
X186358400Y-9750000D02*
G75*
G03*
X186358400Y-9750000I-127000J0D01*
G01*
%TO.C,Q2*%
X112664240Y-10174500D02*
X113335760Y-10174500D01*
X114625600Y-10174500D02*
X114625600Y-11825500D01*
X114625600Y-11825500D02*
X113616740Y-11825500D01*
X111374400Y-11825500D02*
X111374400Y-10174500D01*
X112383260Y-11825500D02*
X111374400Y-11825500D01*
X110358400Y-9750000D02*
G75*
G03*
X110358400Y-9750000I-127000J0D01*
G01*
%TO.C,Q1*%
X32664240Y-10174500D02*
X33335760Y-10174500D01*
X34625600Y-10174500D02*
X34625600Y-11825500D01*
X34625600Y-11825500D02*
X33616740Y-11825500D01*
X31374400Y-11825500D02*
X31374400Y-10174500D01*
X32383260Y-11825500D02*
X31374400Y-11825500D01*
X30358400Y-9750000D02*
G75*
G03*
X30358400Y-9750000I-127000J0D01*
G01*
D12*
%TO.C,U1*%
X163610000Y-17885000D02*
X163610000Y-18610000D01*
X156390000Y-11390000D02*
X157115000Y-11390000D01*
X156390000Y-12115000D02*
X156390000Y-11390000D01*
X156390000Y-18610000D02*
X157115000Y-18610000D01*
X156390000Y-17885000D02*
X156390000Y-18610000D01*
X163610000Y-11390000D02*
X162885000Y-11390000D01*
X163610000Y-12115000D02*
X163610000Y-11390000D01*
%TO.C,R8*%
X107741422Y-9290000D02*
X108258578Y-9290000D01*
X107741422Y-10710000D02*
X108258578Y-10710000D01*
%TO.C,TP1*%
X169950000Y-27000000D02*
G75*
G03*
X169950000Y-27000000I-950000J0D01*
G01*
%TO.C,TDI1*%
X174950000Y-11000000D02*
G75*
G03*
X174950000Y-11000000I-950000J0D01*
G01*
%TO.C,TDO1*%
X177490000Y-11000000D02*
G75*
G03*
X177490000Y-11000000I-950000J0D01*
G01*
%TO.C,TMS1*%
X180030000Y-11000000D02*
G75*
G03*
X180030000Y-11000000I-950000J0D01*
G01*
%TO.C,TCK1*%
X182570000Y-11000000D02*
G75*
G03*
X182570000Y-11000000I-950000J0D01*
G01*
%TO.C,CON1*%
X159570000Y-20970000D02*
X159570000Y-26170000D01*
X154430000Y-20970000D02*
X159570000Y-20970000D01*
X151830000Y-26170000D02*
X159570000Y-26170000D01*
X154430000Y-20970000D02*
X154430000Y-23570000D01*
X154430000Y-23570000D02*
X151830000Y-23570000D01*
X151830000Y-23570000D02*
X151830000Y-26170000D01*
X153160000Y-20970000D02*
X151830000Y-20970000D01*
X151830000Y-20970000D02*
X151830000Y-22300000D01*
D13*
%TO.C,X5*%
X277460000Y-10936000D02*
X272634000Y-10936000D01*
X287279640Y-10885200D02*
X282540000Y-10885200D01*
X272634000Y-10936000D02*
X272634000Y-19318000D01*
X272634000Y-19318000D02*
X287366000Y-19318000D01*
X287366000Y-19318000D02*
X287366000Y-10936000D01*
%TO.C,X3*%
X117460000Y-10936000D02*
X112634000Y-10936000D01*
X127279640Y-10885200D02*
X122540000Y-10885200D01*
X112634000Y-10936000D02*
X112634000Y-19318000D01*
X112634000Y-19318000D02*
X127366000Y-19318000D01*
X127366000Y-19318000D02*
X127366000Y-10936000D01*
%TO.C,X2*%
X37460000Y-10936000D02*
X32634000Y-10936000D01*
X47279640Y-10885200D02*
X42540000Y-10885200D01*
X32634000Y-10936000D02*
X32634000Y-19318000D01*
X32634000Y-19318000D02*
X47366000Y-19318000D01*
X47366000Y-19318000D02*
X47366000Y-10936000D01*
%TO.C,X4*%
X197460000Y-10936000D02*
X192634000Y-10936000D01*
X207279640Y-10885200D02*
X202540000Y-10885200D01*
X192634000Y-10936000D02*
X192634000Y-19318000D01*
X192634000Y-19318000D02*
X207366000Y-19318000D01*
X207366000Y-19318000D02*
X207366000Y-10936000D01*
D12*
%TO.C,C16*%
X153758578Y-9790000D02*
X153241422Y-9790000D01*
X153758578Y-11210000D02*
X153241422Y-11210000D01*
%TO.C,X1*%
X153800000Y-11950000D02*
X153800000Y-17700000D01*
X150200000Y-11950000D02*
X153800000Y-11950000D01*
X150200000Y-17700000D02*
X150200000Y-11950000D01*
%TO.C,U2*%
X257100000Y-13390000D02*
X258900000Y-13390000D01*
X258900000Y-16610000D02*
X256450000Y-16610000D01*
%TO.C,R7*%
X260741422Y-17290000D02*
X261258578Y-17290000D01*
X260741422Y-18710000D02*
X261258578Y-18710000D01*
%TO.C,R6*%
X256741422Y-17290000D02*
X257258578Y-17290000D01*
X256741422Y-18710000D02*
X257258578Y-18710000D01*
%TO.C,R5*%
X36741422Y-19290000D02*
X37258578Y-19290000D01*
X36741422Y-20710000D02*
X37258578Y-20710000D01*
%TO.C,R4*%
X36741422Y-9290000D02*
X37258578Y-9290000D01*
X36741422Y-10710000D02*
X37258578Y-10710000D01*
%TO.C,R3*%
X169210000Y-18241422D02*
X169210000Y-18758578D01*
X167790000Y-18241422D02*
X167790000Y-18758578D01*
%TO.C,R2*%
X184741422Y-9290000D02*
X185258578Y-9290000D01*
X184741422Y-10710000D02*
X185258578Y-10710000D01*
%TO.C,R1*%
X31290000Y-15258578D02*
X31290000Y-14741422D01*
X32710000Y-15258578D02*
X32710000Y-14741422D01*
D14*
%TO.C,J2*%
X16790000Y-7050000D02*
G75*
G03*
X16790000Y-7050000I-200000J0D01*
G01*
%TO.C,J1*%
X308600000Y-7400000D02*
G75*
G03*
X308600000Y-7400000I-200000J0D01*
G01*
D15*
X317350000Y-15000000D02*
X316080000Y-13730000D01*
X316080000Y-16270000D02*
X317350000Y-15000000D01*
X317350000Y-15000000D02*
X317350000Y-6110000D01*
X317350000Y-23890000D02*
X317350000Y-15000000D01*
D12*
%TO.C,C14*%
X262710000Y-15258578D02*
X262710000Y-14741422D01*
X261290000Y-15258578D02*
X261290000Y-14741422D01*
%TO.C,C13*%
X247210000Y-15258578D02*
X247210000Y-14741422D01*
X245790000Y-15258578D02*
X245790000Y-14741422D01*
%TO.C,C12*%
X164290000Y-20741422D02*
X164290000Y-21258578D01*
X165710000Y-20741422D02*
X165710000Y-21258578D01*
%TO.C,C11*%
X166241422Y-12210000D02*
X166758578Y-12210000D01*
X166241422Y-10790000D02*
X166758578Y-10790000D01*
%TO.C,C10*%
X153758578Y-18790000D02*
X153241422Y-18790000D01*
X153758578Y-20210000D02*
X153241422Y-20210000D01*
%TO.C,C9*%
X162290000Y-20741422D02*
X162290000Y-21258578D01*
X163710000Y-20741422D02*
X163710000Y-21258578D01*
%TO.C,C8*%
X25821422Y-15710000D02*
X26338578Y-15710000D01*
X25821422Y-14290000D02*
X26338578Y-14290000D01*
%TO.C,C6*%
X273290000Y-14741422D02*
X273290000Y-15258578D01*
X274710000Y-14741422D02*
X274710000Y-15258578D01*
%TO.C,C4*%
X160290000Y-20741422D02*
X160290000Y-21258578D01*
X161710000Y-20741422D02*
X161710000Y-21258578D01*
%TO.C,C3*%
X167790000Y-14741422D02*
X167790000Y-15258578D01*
X169210000Y-14741422D02*
X169210000Y-15258578D01*
%TO.C,C2*%
X147758578Y-16290000D02*
X147241422Y-16290000D01*
X147758578Y-17710000D02*
X147241422Y-17710000D01*
%TO.C,C1*%
X147758578Y-12290000D02*
X147241422Y-12290000D01*
X147758578Y-13710000D02*
X147241422Y-13710000D01*
%TO.C,Q3*%
D10*
X189190476Y-15282738D02*
X189380952Y-15187500D01*
X189571428Y-14997023D01*
X189857142Y-14711309D01*
X190047619Y-14616071D01*
X190238095Y-14616071D01*
X190142857Y-15092261D02*
X190333333Y-14997023D01*
X190523809Y-14806547D01*
X190619047Y-14425595D01*
X190619047Y-13758928D01*
X190523809Y-13377976D01*
X190333333Y-13187500D01*
X190142857Y-13092261D01*
X189761904Y-13092261D01*
X189571428Y-13187500D01*
X189380952Y-13377976D01*
X189285714Y-13758928D01*
X189285714Y-14425595D01*
X189380952Y-14806547D01*
X189571428Y-14997023D01*
X189761904Y-15092261D01*
X190142857Y-15092261D01*
X188619047Y-13092261D02*
X187380952Y-13092261D01*
X188047619Y-13854166D01*
X187761904Y-13854166D01*
X187571428Y-13949404D01*
X187476190Y-14044642D01*
X187380952Y-14235119D01*
X187380952Y-14711309D01*
X187476190Y-14901785D01*
X187571428Y-14997023D01*
X187761904Y-15092261D01*
X188333333Y-15092261D01*
X188523809Y-14997023D01*
X188619047Y-14901785D01*
%TO.C,Q2*%
X110127976Y-14407738D02*
X110318452Y-14312500D01*
X110508928Y-14122023D01*
X110794642Y-13836309D01*
X110985119Y-13741071D01*
X111175595Y-13741071D01*
X111080357Y-14217261D02*
X111270833Y-14122023D01*
X111461309Y-13931547D01*
X111556547Y-13550595D01*
X111556547Y-12883928D01*
X111461309Y-12502976D01*
X111270833Y-12312500D01*
X111080357Y-12217261D01*
X110699404Y-12217261D01*
X110508928Y-12312500D01*
X110318452Y-12502976D01*
X110223214Y-12883928D01*
X110223214Y-13550595D01*
X110318452Y-13931547D01*
X110508928Y-14122023D01*
X110699404Y-14217261D01*
X111080357Y-14217261D01*
X109461309Y-12407738D02*
X109366071Y-12312500D01*
X109175595Y-12217261D01*
X108699404Y-12217261D01*
X108508928Y-12312500D01*
X108413690Y-12407738D01*
X108318452Y-12598214D01*
X108318452Y-12788690D01*
X108413690Y-13074404D01*
X109556547Y-14217261D01*
X108318452Y-14217261D01*
%TO.C,Q1*%
X33190476Y-8657738D02*
X33380952Y-8562500D01*
X33571428Y-8372023D01*
X33857142Y-8086309D01*
X34047619Y-7991071D01*
X34238095Y-7991071D01*
X34142857Y-8467261D02*
X34333333Y-8372023D01*
X34523809Y-8181547D01*
X34619047Y-7800595D01*
X34619047Y-7133928D01*
X34523809Y-6752976D01*
X34333333Y-6562500D01*
X34142857Y-6467261D01*
X33761904Y-6467261D01*
X33571428Y-6562500D01*
X33380952Y-6752976D01*
X33285714Y-7133928D01*
X33285714Y-7800595D01*
X33380952Y-8181547D01*
X33571428Y-8372023D01*
X33761904Y-8467261D01*
X34142857Y-8467261D01*
X31380952Y-8467261D02*
X32523809Y-8467261D01*
X31952380Y-8467261D02*
X31952380Y-6467261D01*
X32142857Y-6752976D01*
X32333333Y-6943452D01*
X32523809Y-7038690D01*
%TO.C,U1*%
X161523809Y-7404761D02*
X161523809Y-9023809D01*
X161428571Y-9214285D01*
X161333333Y-9309523D01*
X161142857Y-9404761D01*
X160761904Y-9404761D01*
X160571428Y-9309523D01*
X160476190Y-9214285D01*
X160380952Y-9023809D01*
X160380952Y-7404761D01*
X158380952Y-9404761D02*
X159523809Y-9404761D01*
X158952380Y-9404761D02*
X158952380Y-7404761D01*
X159142857Y-7690476D01*
X159333333Y-7880952D01*
X159523809Y-7976190D01*
%TO.C,R8*%
X104583333Y-11092261D02*
X105250000Y-10139880D01*
X105726190Y-11092261D02*
X105726190Y-9092261D01*
X104964285Y-9092261D01*
X104773809Y-9187500D01*
X104678571Y-9282738D01*
X104583333Y-9473214D01*
X104583333Y-9758928D01*
X104678571Y-9949404D01*
X104773809Y-10044642D01*
X104964285Y-10139880D01*
X105726190Y-10139880D01*
X103440476Y-9949404D02*
X103630952Y-9854166D01*
X103726190Y-9758928D01*
X103821428Y-9568452D01*
X103821428Y-9473214D01*
X103726190Y-9282738D01*
X103630952Y-9187500D01*
X103440476Y-9092261D01*
X103059523Y-9092261D01*
X102869047Y-9187500D01*
X102773809Y-9282738D01*
X102678571Y-9473214D01*
X102678571Y-9568452D01*
X102773809Y-9758928D01*
X102869047Y-9854166D01*
X103059523Y-9949404D01*
X103440476Y-9949404D01*
X103630952Y-10044642D01*
X103726190Y-10139880D01*
X103821428Y-10330357D01*
X103821428Y-10711309D01*
X103726190Y-10901785D01*
X103630952Y-10997023D01*
X103440476Y-11092261D01*
X103059523Y-11092261D01*
X102869047Y-10997023D01*
X102773809Y-10901785D01*
X102678571Y-10711309D01*
X102678571Y-10330357D01*
X102773809Y-10139880D01*
X102869047Y-10044642D01*
X103059523Y-9949404D01*
%TO.C,TP1*%
X171523809Y-27552761D02*
X170380952Y-27552761D01*
X170952380Y-29552761D02*
X170952380Y-27552761D01*
X169714285Y-29552761D02*
X169714285Y-27552761D01*
X168952380Y-27552761D01*
X168761904Y-27648000D01*
X168666666Y-27743238D01*
X168571428Y-27933714D01*
X168571428Y-28219428D01*
X168666666Y-28409904D01*
X168761904Y-28505142D01*
X168952380Y-28600380D01*
X169714285Y-28600380D01*
X166666666Y-29552761D02*
X167809523Y-29552761D01*
X167238095Y-29552761D02*
X167238095Y-27552761D01*
X167428571Y-27838476D01*
X167619047Y-28028952D01*
X167809523Y-28124190D01*
%TO.C,TDI1*%
X172904761Y-12648000D02*
X172904761Y-13790857D01*
X174904761Y-13219428D02*
X172904761Y-13219428D01*
X174904761Y-14457523D02*
X172904761Y-14457523D01*
X172904761Y-14933714D01*
X173000000Y-15219428D01*
X173190476Y-15409904D01*
X173380952Y-15505142D01*
X173761904Y-15600380D01*
X174047619Y-15600380D01*
X174428571Y-15505142D01*
X174619047Y-15409904D01*
X174809523Y-15219428D01*
X174904761Y-14933714D01*
X174904761Y-14457523D01*
X174904761Y-16457523D02*
X172904761Y-16457523D01*
X174904761Y-18457523D02*
X174904761Y-17314666D01*
X174904761Y-17886095D02*
X172904761Y-17886095D01*
X173190476Y-17695619D01*
X173380952Y-17505142D01*
X173476190Y-17314666D01*
%TO.C,TDO1*%
X175444761Y-12076571D02*
X175444761Y-13219428D01*
X177444761Y-12648000D02*
X175444761Y-12648000D01*
X177444761Y-13886095D02*
X175444761Y-13886095D01*
X175444761Y-14362285D01*
X175540000Y-14648000D01*
X175730476Y-14838476D01*
X175920952Y-14933714D01*
X176301904Y-15028952D01*
X176587619Y-15028952D01*
X176968571Y-14933714D01*
X177159047Y-14838476D01*
X177349523Y-14648000D01*
X177444761Y-14362285D01*
X177444761Y-13886095D01*
X175444761Y-16267047D02*
X175444761Y-16648000D01*
X175540000Y-16838476D01*
X175730476Y-17028952D01*
X176111428Y-17124190D01*
X176778095Y-17124190D01*
X177159047Y-17028952D01*
X177349523Y-16838476D01*
X177444761Y-16648000D01*
X177444761Y-16267047D01*
X177349523Y-16076571D01*
X177159047Y-15886095D01*
X176778095Y-15790857D01*
X176111428Y-15790857D01*
X175730476Y-15886095D01*
X175540000Y-16076571D01*
X175444761Y-16267047D01*
X177444761Y-19028952D02*
X177444761Y-17886095D01*
X177444761Y-18457523D02*
X175444761Y-18457523D01*
X175730476Y-18267047D01*
X175920952Y-18076571D01*
X176016190Y-17886095D01*
%TO.C,TMS1*%
X177984761Y-12028952D02*
X177984761Y-13171809D01*
X179984761Y-12600380D02*
X177984761Y-12600380D01*
X179984761Y-13838476D02*
X177984761Y-13838476D01*
X179413333Y-14505142D01*
X177984761Y-15171809D01*
X179984761Y-15171809D01*
X179889523Y-16028952D02*
X179984761Y-16314666D01*
X179984761Y-16790857D01*
X179889523Y-16981333D01*
X179794285Y-17076571D01*
X179603809Y-17171809D01*
X179413333Y-17171809D01*
X179222857Y-17076571D01*
X179127619Y-16981333D01*
X179032380Y-16790857D01*
X178937142Y-16409904D01*
X178841904Y-16219428D01*
X178746666Y-16124190D01*
X178556190Y-16028952D01*
X178365714Y-16028952D01*
X178175238Y-16124190D01*
X178080000Y-16219428D01*
X177984761Y-16409904D01*
X177984761Y-16886095D01*
X178080000Y-17171809D01*
X179984761Y-19076571D02*
X179984761Y-17933714D01*
X179984761Y-18505142D02*
X177984761Y-18505142D01*
X178270476Y-18314666D01*
X178460952Y-18124190D01*
X178556190Y-17933714D01*
%TO.C,TCK1*%
X180524761Y-12124190D02*
X180524761Y-13267047D01*
X182524761Y-12695619D02*
X180524761Y-12695619D01*
X182334285Y-15076571D02*
X182429523Y-14981333D01*
X182524761Y-14695619D01*
X182524761Y-14505142D01*
X182429523Y-14219428D01*
X182239047Y-14028952D01*
X182048571Y-13933714D01*
X181667619Y-13838476D01*
X181381904Y-13838476D01*
X181000952Y-13933714D01*
X180810476Y-14028952D01*
X180620000Y-14219428D01*
X180524761Y-14505142D01*
X180524761Y-14695619D01*
X180620000Y-14981333D01*
X180715238Y-15076571D01*
X182524761Y-15933714D02*
X180524761Y-15933714D01*
X182524761Y-17076571D02*
X181381904Y-16219428D01*
X180524761Y-17076571D02*
X181667619Y-15933714D01*
X182524761Y-18981333D02*
X182524761Y-17838476D01*
X182524761Y-18409904D02*
X180524761Y-18409904D01*
X180810476Y-18219428D01*
X181000952Y-18028952D01*
X181096190Y-17838476D01*
%TO.C,CON1*%
X151544285Y-21141428D02*
X151639523Y-21046190D01*
X151734761Y-20760476D01*
X151734761Y-20570000D01*
X151639523Y-20284285D01*
X151449047Y-20093809D01*
X151258571Y-19998571D01*
X150877619Y-19903333D01*
X150591904Y-19903333D01*
X150210952Y-19998571D01*
X150020476Y-20093809D01*
X149830000Y-20284285D01*
X149734761Y-20570000D01*
X149734761Y-20760476D01*
X149830000Y-21046190D01*
X149925238Y-21141428D01*
X149734761Y-22379523D02*
X149734761Y-22760476D01*
X149830000Y-22950952D01*
X150020476Y-23141428D01*
X150401428Y-23236666D01*
X151068095Y-23236666D01*
X151449047Y-23141428D01*
X151639523Y-22950952D01*
X151734761Y-22760476D01*
X151734761Y-22379523D01*
X151639523Y-22189047D01*
X151449047Y-21998571D01*
X151068095Y-21903333D01*
X150401428Y-21903333D01*
X150020476Y-21998571D01*
X149830000Y-22189047D01*
X149734761Y-22379523D01*
X151734761Y-24093809D02*
X149734761Y-24093809D01*
X151734761Y-25236666D01*
X149734761Y-25236666D01*
X151734761Y-27236666D02*
X151734761Y-26093809D01*
X151734761Y-26665238D02*
X149734761Y-26665238D01*
X150020476Y-26474761D01*
X150210952Y-26284285D01*
X150306190Y-26093809D01*
%TO.C,X5*%
X281619047Y-8062761D02*
X280285714Y-10062761D01*
X280285714Y-8062761D02*
X281619047Y-10062761D01*
X278571428Y-8062761D02*
X279523809Y-8062761D01*
X279619047Y-9015142D01*
X279523809Y-8919904D01*
X279333333Y-8824666D01*
X278857142Y-8824666D01*
X278666666Y-8919904D01*
X278571428Y-9015142D01*
X278476190Y-9205619D01*
X278476190Y-9681809D01*
X278571428Y-9872285D01*
X278666666Y-9967523D01*
X278857142Y-10062761D01*
X279333333Y-10062761D01*
X279523809Y-9967523D01*
X279619047Y-9872285D01*
D16*
X285044142Y-17673000D02*
X285115571Y-17637285D01*
X285222714Y-17637285D01*
X285329857Y-17673000D01*
X285401285Y-17744428D01*
X285437000Y-17815857D01*
X285472714Y-17958714D01*
X285472714Y-18065857D01*
X285437000Y-18208714D01*
X285401285Y-18280142D01*
X285329857Y-18351571D01*
X285222714Y-18387285D01*
X285151285Y-18387285D01*
X285044142Y-18351571D01*
X285008428Y-18315857D01*
X285008428Y-18065857D01*
X285151285Y-18065857D01*
X284687000Y-18387285D02*
X284687000Y-17637285D01*
X284401285Y-17637285D01*
X284329857Y-17673000D01*
X284294142Y-17708714D01*
X284258428Y-17780142D01*
X284258428Y-17887285D01*
X284294142Y-17958714D01*
X284329857Y-17994428D01*
X284401285Y-18030142D01*
X284687000Y-18030142D01*
X283937000Y-18387285D02*
X283937000Y-17637285D01*
X283437000Y-17637285D02*
X283294142Y-17637285D01*
X283222714Y-17673000D01*
X283151285Y-17744428D01*
X283115571Y-17887285D01*
X283115571Y-18137285D01*
X283151285Y-18280142D01*
X283222714Y-18351571D01*
X283294142Y-18387285D01*
X283437000Y-18387285D01*
X283508428Y-18351571D01*
X283579857Y-18280142D01*
X283615571Y-18137285D01*
X283615571Y-17887285D01*
X283579857Y-17744428D01*
X283508428Y-17673000D01*
X283437000Y-17637285D01*
X282829857Y-17708714D02*
X282794142Y-17673000D01*
X282722714Y-17637285D01*
X282544142Y-17637285D01*
X282472714Y-17673000D01*
X282437000Y-17708714D01*
X282401285Y-17780142D01*
X282401285Y-17851571D01*
X282437000Y-17958714D01*
X282865571Y-18387285D01*
X282401285Y-18387285D01*
X280892857Y-18351571D02*
X280785714Y-18387285D01*
X280607142Y-18387285D01*
X280535714Y-18351571D01*
X280500000Y-18315857D01*
X280464285Y-18244428D01*
X280464285Y-18173000D01*
X280500000Y-18101571D01*
X280535714Y-18065857D01*
X280607142Y-18030142D01*
X280750000Y-17994428D01*
X280821428Y-17958714D01*
X280857142Y-17923000D01*
X280892857Y-17851571D01*
X280892857Y-17780142D01*
X280857142Y-17708714D01*
X280821428Y-17673000D01*
X280750000Y-17637285D01*
X280571428Y-17637285D01*
X280464285Y-17673000D01*
X279714285Y-18315857D02*
X279750000Y-18351571D01*
X279857142Y-18387285D01*
X279928571Y-18387285D01*
X280035714Y-18351571D01*
X280107142Y-18280142D01*
X280142857Y-18208714D01*
X280178571Y-18065857D01*
X280178571Y-17958714D01*
X280142857Y-17815857D01*
X280107142Y-17744428D01*
X280035714Y-17673000D01*
X279928571Y-17637285D01*
X279857142Y-17637285D01*
X279750000Y-17673000D01*
X279714285Y-17708714D01*
X279035714Y-18387285D02*
X279392857Y-18387285D01*
X279392857Y-17637285D01*
X278031428Y-17673000D02*
X278102857Y-17637285D01*
X278210000Y-17637285D01*
X278317142Y-17673000D01*
X278388571Y-17744428D01*
X278424285Y-17815857D01*
X278460000Y-17958714D01*
X278460000Y-18065857D01*
X278424285Y-18208714D01*
X278388571Y-18280142D01*
X278317142Y-18351571D01*
X278210000Y-18387285D01*
X278138571Y-18387285D01*
X278031428Y-18351571D01*
X277995714Y-18315857D01*
X277995714Y-18065857D01*
X278138571Y-18065857D01*
X277674285Y-18387285D02*
X277674285Y-17637285D01*
X277245714Y-18387285D01*
X277245714Y-17637285D01*
X276888571Y-18387285D02*
X276888571Y-17637285D01*
X276710000Y-17637285D01*
X276602857Y-17673000D01*
X276531428Y-17744428D01*
X276495714Y-17815857D01*
X276460000Y-17958714D01*
X276460000Y-18065857D01*
X276495714Y-18208714D01*
X276531428Y-18280142D01*
X276602857Y-18351571D01*
X276710000Y-18387285D01*
X276888571Y-18387285D01*
X285044142Y-11831000D02*
X285115571Y-11795285D01*
X285222714Y-11795285D01*
X285329857Y-11831000D01*
X285401285Y-11902428D01*
X285437000Y-11973857D01*
X285472714Y-12116714D01*
X285472714Y-12223857D01*
X285437000Y-12366714D01*
X285401285Y-12438142D01*
X285329857Y-12509571D01*
X285222714Y-12545285D01*
X285151285Y-12545285D01*
X285044142Y-12509571D01*
X285008428Y-12473857D01*
X285008428Y-12223857D01*
X285151285Y-12223857D01*
X284687000Y-12545285D02*
X284687000Y-11795285D01*
X284401285Y-11795285D01*
X284329857Y-11831000D01*
X284294142Y-11866714D01*
X284258428Y-11938142D01*
X284258428Y-12045285D01*
X284294142Y-12116714D01*
X284329857Y-12152428D01*
X284401285Y-12188142D01*
X284687000Y-12188142D01*
X283937000Y-12545285D02*
X283937000Y-11795285D01*
X283437000Y-11795285D02*
X283294142Y-11795285D01*
X283222714Y-11831000D01*
X283151285Y-11902428D01*
X283115571Y-12045285D01*
X283115571Y-12295285D01*
X283151285Y-12438142D01*
X283222714Y-12509571D01*
X283294142Y-12545285D01*
X283437000Y-12545285D01*
X283508428Y-12509571D01*
X283579857Y-12438142D01*
X283615571Y-12295285D01*
X283615571Y-12045285D01*
X283579857Y-11902428D01*
X283508428Y-11831000D01*
X283437000Y-11795285D01*
X282401285Y-12545285D02*
X282829857Y-12545285D01*
X282615571Y-12545285D02*
X282615571Y-11795285D01*
X282687000Y-11902428D01*
X282758428Y-11973857D01*
X282829857Y-12009571D01*
X280910714Y-12509571D02*
X280803571Y-12545285D01*
X280625000Y-12545285D01*
X280553571Y-12509571D01*
X280517857Y-12473857D01*
X280482142Y-12402428D01*
X280482142Y-12331000D01*
X280517857Y-12259571D01*
X280553571Y-12223857D01*
X280625000Y-12188142D01*
X280767857Y-12152428D01*
X280839285Y-12116714D01*
X280875000Y-12081000D01*
X280910714Y-12009571D01*
X280910714Y-11938142D01*
X280875000Y-11866714D01*
X280839285Y-11831000D01*
X280767857Y-11795285D01*
X280589285Y-11795285D01*
X280482142Y-11831000D01*
X280160714Y-12545285D02*
X280160714Y-11795285D01*
X279982142Y-11795285D01*
X279875000Y-11831000D01*
X279803571Y-11902428D01*
X279767857Y-11973857D01*
X279732142Y-12116714D01*
X279732142Y-12223857D01*
X279767857Y-12366714D01*
X279803571Y-12438142D01*
X279875000Y-12509571D01*
X279982142Y-12545285D01*
X280160714Y-12545285D01*
X279446428Y-12331000D02*
X279089285Y-12331000D01*
X279517857Y-12545285D02*
X279267857Y-11795285D01*
X279017857Y-12545285D01*
X278460000Y-11795285D02*
X278210000Y-12545285D01*
X277960000Y-11795285D01*
X277281428Y-12473857D02*
X277317142Y-12509571D01*
X277424285Y-12545285D01*
X277495714Y-12545285D01*
X277602857Y-12509571D01*
X277674285Y-12438142D01*
X277710000Y-12366714D01*
X277745714Y-12223857D01*
X277745714Y-12116714D01*
X277710000Y-11973857D01*
X277674285Y-11902428D01*
X277602857Y-11831000D01*
X277495714Y-11795285D01*
X277424285Y-11795285D01*
X277317142Y-11831000D01*
X277281428Y-11866714D01*
X276531428Y-12473857D02*
X276567142Y-12509571D01*
X276674285Y-12545285D01*
X276745714Y-12545285D01*
X276852857Y-12509571D01*
X276924285Y-12438142D01*
X276960000Y-12366714D01*
X276995714Y-12223857D01*
X276995714Y-12116714D01*
X276960000Y-11973857D01*
X276924285Y-11902428D01*
X276852857Y-11831000D01*
X276745714Y-11795285D01*
X276674285Y-11795285D01*
X276567142Y-11831000D01*
X276531428Y-11866714D01*
%TO.C,X3*%
D10*
X121619047Y-8062761D02*
X120285714Y-10062761D01*
X120285714Y-8062761D02*
X121619047Y-10062761D01*
X119714285Y-8062761D02*
X118476190Y-8062761D01*
X119142857Y-8824666D01*
X118857142Y-8824666D01*
X118666666Y-8919904D01*
X118571428Y-9015142D01*
X118476190Y-9205619D01*
X118476190Y-9681809D01*
X118571428Y-9872285D01*
X118666666Y-9967523D01*
X118857142Y-10062761D01*
X119428571Y-10062761D01*
X119619047Y-9967523D01*
X119714285Y-9872285D01*
D16*
X125044142Y-17673000D02*
X125115571Y-17637285D01*
X125222714Y-17637285D01*
X125329857Y-17673000D01*
X125401285Y-17744428D01*
X125437000Y-17815857D01*
X125472714Y-17958714D01*
X125472714Y-18065857D01*
X125437000Y-18208714D01*
X125401285Y-18280142D01*
X125329857Y-18351571D01*
X125222714Y-18387285D01*
X125151285Y-18387285D01*
X125044142Y-18351571D01*
X125008428Y-18315857D01*
X125008428Y-18065857D01*
X125151285Y-18065857D01*
X124687000Y-18387285D02*
X124687000Y-17637285D01*
X124401285Y-17637285D01*
X124329857Y-17673000D01*
X124294142Y-17708714D01*
X124258428Y-17780142D01*
X124258428Y-17887285D01*
X124294142Y-17958714D01*
X124329857Y-17994428D01*
X124401285Y-18030142D01*
X124687000Y-18030142D01*
X123937000Y-18387285D02*
X123937000Y-17637285D01*
X123437000Y-17637285D02*
X123294142Y-17637285D01*
X123222714Y-17673000D01*
X123151285Y-17744428D01*
X123115571Y-17887285D01*
X123115571Y-18137285D01*
X123151285Y-18280142D01*
X123222714Y-18351571D01*
X123294142Y-18387285D01*
X123437000Y-18387285D01*
X123508428Y-18351571D01*
X123579857Y-18280142D01*
X123615571Y-18137285D01*
X123615571Y-17887285D01*
X123579857Y-17744428D01*
X123508428Y-17673000D01*
X123437000Y-17637285D01*
X122829857Y-17708714D02*
X122794142Y-17673000D01*
X122722714Y-17637285D01*
X122544142Y-17637285D01*
X122472714Y-17673000D01*
X122437000Y-17708714D01*
X122401285Y-17780142D01*
X122401285Y-17851571D01*
X122437000Y-17958714D01*
X122865571Y-18387285D01*
X122401285Y-18387285D01*
X120892857Y-18351571D02*
X120785714Y-18387285D01*
X120607142Y-18387285D01*
X120535714Y-18351571D01*
X120500000Y-18315857D01*
X120464285Y-18244428D01*
X120464285Y-18173000D01*
X120500000Y-18101571D01*
X120535714Y-18065857D01*
X120607142Y-18030142D01*
X120750000Y-17994428D01*
X120821428Y-17958714D01*
X120857142Y-17923000D01*
X120892857Y-17851571D01*
X120892857Y-17780142D01*
X120857142Y-17708714D01*
X120821428Y-17673000D01*
X120750000Y-17637285D01*
X120571428Y-17637285D01*
X120464285Y-17673000D01*
X119714285Y-18315857D02*
X119750000Y-18351571D01*
X119857142Y-18387285D01*
X119928571Y-18387285D01*
X120035714Y-18351571D01*
X120107142Y-18280142D01*
X120142857Y-18208714D01*
X120178571Y-18065857D01*
X120178571Y-17958714D01*
X120142857Y-17815857D01*
X120107142Y-17744428D01*
X120035714Y-17673000D01*
X119928571Y-17637285D01*
X119857142Y-17637285D01*
X119750000Y-17673000D01*
X119714285Y-17708714D01*
X119035714Y-18387285D02*
X119392857Y-18387285D01*
X119392857Y-17637285D01*
X118031428Y-17673000D02*
X118102857Y-17637285D01*
X118210000Y-17637285D01*
X118317142Y-17673000D01*
X118388571Y-17744428D01*
X118424285Y-17815857D01*
X118460000Y-17958714D01*
X118460000Y-18065857D01*
X118424285Y-18208714D01*
X118388571Y-18280142D01*
X118317142Y-18351571D01*
X118210000Y-18387285D01*
X118138571Y-18387285D01*
X118031428Y-18351571D01*
X117995714Y-18315857D01*
X117995714Y-18065857D01*
X118138571Y-18065857D01*
X117674285Y-18387285D02*
X117674285Y-17637285D01*
X117245714Y-18387285D01*
X117245714Y-17637285D01*
X116888571Y-18387285D02*
X116888571Y-17637285D01*
X116710000Y-17637285D01*
X116602857Y-17673000D01*
X116531428Y-17744428D01*
X116495714Y-17815857D01*
X116460000Y-17958714D01*
X116460000Y-18065857D01*
X116495714Y-18208714D01*
X116531428Y-18280142D01*
X116602857Y-18351571D01*
X116710000Y-18387285D01*
X116888571Y-18387285D01*
X125044142Y-11831000D02*
X125115571Y-11795285D01*
X125222714Y-11795285D01*
X125329857Y-11831000D01*
X125401285Y-11902428D01*
X125437000Y-11973857D01*
X125472714Y-12116714D01*
X125472714Y-12223857D01*
X125437000Y-12366714D01*
X125401285Y-12438142D01*
X125329857Y-12509571D01*
X125222714Y-12545285D01*
X125151285Y-12545285D01*
X125044142Y-12509571D01*
X125008428Y-12473857D01*
X125008428Y-12223857D01*
X125151285Y-12223857D01*
X124687000Y-12545285D02*
X124687000Y-11795285D01*
X124401285Y-11795285D01*
X124329857Y-11831000D01*
X124294142Y-11866714D01*
X124258428Y-11938142D01*
X124258428Y-12045285D01*
X124294142Y-12116714D01*
X124329857Y-12152428D01*
X124401285Y-12188142D01*
X124687000Y-12188142D01*
X123937000Y-12545285D02*
X123937000Y-11795285D01*
X123437000Y-11795285D02*
X123294142Y-11795285D01*
X123222714Y-11831000D01*
X123151285Y-11902428D01*
X123115571Y-12045285D01*
X123115571Y-12295285D01*
X123151285Y-12438142D01*
X123222714Y-12509571D01*
X123294142Y-12545285D01*
X123437000Y-12545285D01*
X123508428Y-12509571D01*
X123579857Y-12438142D01*
X123615571Y-12295285D01*
X123615571Y-12045285D01*
X123579857Y-11902428D01*
X123508428Y-11831000D01*
X123437000Y-11795285D01*
X122401285Y-12545285D02*
X122829857Y-12545285D01*
X122615571Y-12545285D02*
X122615571Y-11795285D01*
X122687000Y-11902428D01*
X122758428Y-11973857D01*
X122829857Y-12009571D01*
X120910714Y-12509571D02*
X120803571Y-12545285D01*
X120625000Y-12545285D01*
X120553571Y-12509571D01*
X120517857Y-12473857D01*
X120482142Y-12402428D01*
X120482142Y-12331000D01*
X120517857Y-12259571D01*
X120553571Y-12223857D01*
X120625000Y-12188142D01*
X120767857Y-12152428D01*
X120839285Y-12116714D01*
X120875000Y-12081000D01*
X120910714Y-12009571D01*
X120910714Y-11938142D01*
X120875000Y-11866714D01*
X120839285Y-11831000D01*
X120767857Y-11795285D01*
X120589285Y-11795285D01*
X120482142Y-11831000D01*
X120160714Y-12545285D02*
X120160714Y-11795285D01*
X119982142Y-11795285D01*
X119875000Y-11831000D01*
X119803571Y-11902428D01*
X119767857Y-11973857D01*
X119732142Y-12116714D01*
X119732142Y-12223857D01*
X119767857Y-12366714D01*
X119803571Y-12438142D01*
X119875000Y-12509571D01*
X119982142Y-12545285D01*
X120160714Y-12545285D01*
X119446428Y-12331000D02*
X119089285Y-12331000D01*
X119517857Y-12545285D02*
X119267857Y-11795285D01*
X119017857Y-12545285D01*
X118460000Y-11795285D02*
X118210000Y-12545285D01*
X117960000Y-11795285D01*
X117281428Y-12473857D02*
X117317142Y-12509571D01*
X117424285Y-12545285D01*
X117495714Y-12545285D01*
X117602857Y-12509571D01*
X117674285Y-12438142D01*
X117710000Y-12366714D01*
X117745714Y-12223857D01*
X117745714Y-12116714D01*
X117710000Y-11973857D01*
X117674285Y-11902428D01*
X117602857Y-11831000D01*
X117495714Y-11795285D01*
X117424285Y-11795285D01*
X117317142Y-11831000D01*
X117281428Y-11866714D01*
X116531428Y-12473857D02*
X116567142Y-12509571D01*
X116674285Y-12545285D01*
X116745714Y-12545285D01*
X116852857Y-12509571D01*
X116924285Y-12438142D01*
X116960000Y-12366714D01*
X116995714Y-12223857D01*
X116995714Y-12116714D01*
X116960000Y-11973857D01*
X116924285Y-11902428D01*
X116852857Y-11831000D01*
X116745714Y-11795285D01*
X116674285Y-11795285D01*
X116567142Y-11831000D01*
X116531428Y-11866714D01*
%TO.C,X2*%
D10*
X46619047Y-8062761D02*
X45285714Y-10062761D01*
X45285714Y-8062761D02*
X46619047Y-10062761D01*
X44619047Y-8253238D02*
X44523809Y-8158000D01*
X44333333Y-8062761D01*
X43857142Y-8062761D01*
X43666666Y-8158000D01*
X43571428Y-8253238D01*
X43476190Y-8443714D01*
X43476190Y-8634190D01*
X43571428Y-8919904D01*
X44714285Y-10062761D01*
X43476190Y-10062761D01*
D16*
X45044142Y-17673000D02*
X45115571Y-17637285D01*
X45222714Y-17637285D01*
X45329857Y-17673000D01*
X45401285Y-17744428D01*
X45437000Y-17815857D01*
X45472714Y-17958714D01*
X45472714Y-18065857D01*
X45437000Y-18208714D01*
X45401285Y-18280142D01*
X45329857Y-18351571D01*
X45222714Y-18387285D01*
X45151285Y-18387285D01*
X45044142Y-18351571D01*
X45008428Y-18315857D01*
X45008428Y-18065857D01*
X45151285Y-18065857D01*
X44687000Y-18387285D02*
X44687000Y-17637285D01*
X44401285Y-17637285D01*
X44329857Y-17673000D01*
X44294142Y-17708714D01*
X44258428Y-17780142D01*
X44258428Y-17887285D01*
X44294142Y-17958714D01*
X44329857Y-17994428D01*
X44401285Y-18030142D01*
X44687000Y-18030142D01*
X43937000Y-18387285D02*
X43937000Y-17637285D01*
X43437000Y-17637285D02*
X43294142Y-17637285D01*
X43222714Y-17673000D01*
X43151285Y-17744428D01*
X43115571Y-17887285D01*
X43115571Y-18137285D01*
X43151285Y-18280142D01*
X43222714Y-18351571D01*
X43294142Y-18387285D01*
X43437000Y-18387285D01*
X43508428Y-18351571D01*
X43579857Y-18280142D01*
X43615571Y-18137285D01*
X43615571Y-17887285D01*
X43579857Y-17744428D01*
X43508428Y-17673000D01*
X43437000Y-17637285D01*
X42829857Y-17708714D02*
X42794142Y-17673000D01*
X42722714Y-17637285D01*
X42544142Y-17637285D01*
X42472714Y-17673000D01*
X42437000Y-17708714D01*
X42401285Y-17780142D01*
X42401285Y-17851571D01*
X42437000Y-17958714D01*
X42865571Y-18387285D01*
X42401285Y-18387285D01*
X40892857Y-18351571D02*
X40785714Y-18387285D01*
X40607142Y-18387285D01*
X40535714Y-18351571D01*
X40500000Y-18315857D01*
X40464285Y-18244428D01*
X40464285Y-18173000D01*
X40500000Y-18101571D01*
X40535714Y-18065857D01*
X40607142Y-18030142D01*
X40750000Y-17994428D01*
X40821428Y-17958714D01*
X40857142Y-17923000D01*
X40892857Y-17851571D01*
X40892857Y-17780142D01*
X40857142Y-17708714D01*
X40821428Y-17673000D01*
X40750000Y-17637285D01*
X40571428Y-17637285D01*
X40464285Y-17673000D01*
X39714285Y-18315857D02*
X39750000Y-18351571D01*
X39857142Y-18387285D01*
X39928571Y-18387285D01*
X40035714Y-18351571D01*
X40107142Y-18280142D01*
X40142857Y-18208714D01*
X40178571Y-18065857D01*
X40178571Y-17958714D01*
X40142857Y-17815857D01*
X40107142Y-17744428D01*
X40035714Y-17673000D01*
X39928571Y-17637285D01*
X39857142Y-17637285D01*
X39750000Y-17673000D01*
X39714285Y-17708714D01*
X39035714Y-18387285D02*
X39392857Y-18387285D01*
X39392857Y-17637285D01*
X38031428Y-17673000D02*
X38102857Y-17637285D01*
X38210000Y-17637285D01*
X38317142Y-17673000D01*
X38388571Y-17744428D01*
X38424285Y-17815857D01*
X38460000Y-17958714D01*
X38460000Y-18065857D01*
X38424285Y-18208714D01*
X38388571Y-18280142D01*
X38317142Y-18351571D01*
X38210000Y-18387285D01*
X38138571Y-18387285D01*
X38031428Y-18351571D01*
X37995714Y-18315857D01*
X37995714Y-18065857D01*
X38138571Y-18065857D01*
X37674285Y-18387285D02*
X37674285Y-17637285D01*
X37245714Y-18387285D01*
X37245714Y-17637285D01*
X36888571Y-18387285D02*
X36888571Y-17637285D01*
X36710000Y-17637285D01*
X36602857Y-17673000D01*
X36531428Y-17744428D01*
X36495714Y-17815857D01*
X36460000Y-17958714D01*
X36460000Y-18065857D01*
X36495714Y-18208714D01*
X36531428Y-18280142D01*
X36602857Y-18351571D01*
X36710000Y-18387285D01*
X36888571Y-18387285D01*
X45044142Y-11831000D02*
X45115571Y-11795285D01*
X45222714Y-11795285D01*
X45329857Y-11831000D01*
X45401285Y-11902428D01*
X45437000Y-11973857D01*
X45472714Y-12116714D01*
X45472714Y-12223857D01*
X45437000Y-12366714D01*
X45401285Y-12438142D01*
X45329857Y-12509571D01*
X45222714Y-12545285D01*
X45151285Y-12545285D01*
X45044142Y-12509571D01*
X45008428Y-12473857D01*
X45008428Y-12223857D01*
X45151285Y-12223857D01*
X44687000Y-12545285D02*
X44687000Y-11795285D01*
X44401285Y-11795285D01*
X44329857Y-11831000D01*
X44294142Y-11866714D01*
X44258428Y-11938142D01*
X44258428Y-12045285D01*
X44294142Y-12116714D01*
X44329857Y-12152428D01*
X44401285Y-12188142D01*
X44687000Y-12188142D01*
X43937000Y-12545285D02*
X43937000Y-11795285D01*
X43437000Y-11795285D02*
X43294142Y-11795285D01*
X43222714Y-11831000D01*
X43151285Y-11902428D01*
X43115571Y-12045285D01*
X43115571Y-12295285D01*
X43151285Y-12438142D01*
X43222714Y-12509571D01*
X43294142Y-12545285D01*
X43437000Y-12545285D01*
X43508428Y-12509571D01*
X43579857Y-12438142D01*
X43615571Y-12295285D01*
X43615571Y-12045285D01*
X43579857Y-11902428D01*
X43508428Y-11831000D01*
X43437000Y-11795285D01*
X42401285Y-12545285D02*
X42829857Y-12545285D01*
X42615571Y-12545285D02*
X42615571Y-11795285D01*
X42687000Y-11902428D01*
X42758428Y-11973857D01*
X42829857Y-12009571D01*
X40910714Y-12509571D02*
X40803571Y-12545285D01*
X40625000Y-12545285D01*
X40553571Y-12509571D01*
X40517857Y-12473857D01*
X40482142Y-12402428D01*
X40482142Y-12331000D01*
X40517857Y-12259571D01*
X40553571Y-12223857D01*
X40625000Y-12188142D01*
X40767857Y-12152428D01*
X40839285Y-12116714D01*
X40875000Y-12081000D01*
X40910714Y-12009571D01*
X40910714Y-11938142D01*
X40875000Y-11866714D01*
X40839285Y-11831000D01*
X40767857Y-11795285D01*
X40589285Y-11795285D01*
X40482142Y-11831000D01*
X40160714Y-12545285D02*
X40160714Y-11795285D01*
X39982142Y-11795285D01*
X39875000Y-11831000D01*
X39803571Y-11902428D01*
X39767857Y-11973857D01*
X39732142Y-12116714D01*
X39732142Y-12223857D01*
X39767857Y-12366714D01*
X39803571Y-12438142D01*
X39875000Y-12509571D01*
X39982142Y-12545285D01*
X40160714Y-12545285D01*
X39446428Y-12331000D02*
X39089285Y-12331000D01*
X39517857Y-12545285D02*
X39267857Y-11795285D01*
X39017857Y-12545285D01*
X38460000Y-11795285D02*
X38210000Y-12545285D01*
X37960000Y-11795285D01*
X37281428Y-12473857D02*
X37317142Y-12509571D01*
X37424285Y-12545285D01*
X37495714Y-12545285D01*
X37602857Y-12509571D01*
X37674285Y-12438142D01*
X37710000Y-12366714D01*
X37745714Y-12223857D01*
X37745714Y-12116714D01*
X37710000Y-11973857D01*
X37674285Y-11902428D01*
X37602857Y-11831000D01*
X37495714Y-11795285D01*
X37424285Y-11795285D01*
X37317142Y-11831000D01*
X37281428Y-11866714D01*
X36531428Y-12473857D02*
X36567142Y-12509571D01*
X36674285Y-12545285D01*
X36745714Y-12545285D01*
X36852857Y-12509571D01*
X36924285Y-12438142D01*
X36960000Y-12366714D01*
X36995714Y-12223857D01*
X36995714Y-12116714D01*
X36960000Y-11973857D01*
X36924285Y-11902428D01*
X36852857Y-11831000D01*
X36745714Y-11795285D01*
X36674285Y-11795285D01*
X36567142Y-11831000D01*
X36531428Y-11866714D01*
%TO.C,X4*%
D10*
X201619047Y-8062761D02*
X200285714Y-10062761D01*
X200285714Y-8062761D02*
X201619047Y-10062761D01*
X198666666Y-8729428D02*
X198666666Y-10062761D01*
X199142857Y-7967523D02*
X199619047Y-9396095D01*
X198380952Y-9396095D01*
D16*
X205044142Y-17673000D02*
X205115571Y-17637285D01*
X205222714Y-17637285D01*
X205329857Y-17673000D01*
X205401285Y-17744428D01*
X205437000Y-17815857D01*
X205472714Y-17958714D01*
X205472714Y-18065857D01*
X205437000Y-18208714D01*
X205401285Y-18280142D01*
X205329857Y-18351571D01*
X205222714Y-18387285D01*
X205151285Y-18387285D01*
X205044142Y-18351571D01*
X205008428Y-18315857D01*
X205008428Y-18065857D01*
X205151285Y-18065857D01*
X204687000Y-18387285D02*
X204687000Y-17637285D01*
X204401285Y-17637285D01*
X204329857Y-17673000D01*
X204294142Y-17708714D01*
X204258428Y-17780142D01*
X204258428Y-17887285D01*
X204294142Y-17958714D01*
X204329857Y-17994428D01*
X204401285Y-18030142D01*
X204687000Y-18030142D01*
X203937000Y-18387285D02*
X203937000Y-17637285D01*
X203437000Y-17637285D02*
X203294142Y-17637285D01*
X203222714Y-17673000D01*
X203151285Y-17744428D01*
X203115571Y-17887285D01*
X203115571Y-18137285D01*
X203151285Y-18280142D01*
X203222714Y-18351571D01*
X203294142Y-18387285D01*
X203437000Y-18387285D01*
X203508428Y-18351571D01*
X203579857Y-18280142D01*
X203615571Y-18137285D01*
X203615571Y-17887285D01*
X203579857Y-17744428D01*
X203508428Y-17673000D01*
X203437000Y-17637285D01*
X202829857Y-17708714D02*
X202794142Y-17673000D01*
X202722714Y-17637285D01*
X202544142Y-17637285D01*
X202472714Y-17673000D01*
X202437000Y-17708714D01*
X202401285Y-17780142D01*
X202401285Y-17851571D01*
X202437000Y-17958714D01*
X202865571Y-18387285D01*
X202401285Y-18387285D01*
X200892857Y-18351571D02*
X200785714Y-18387285D01*
X200607142Y-18387285D01*
X200535714Y-18351571D01*
X200500000Y-18315857D01*
X200464285Y-18244428D01*
X200464285Y-18173000D01*
X200500000Y-18101571D01*
X200535714Y-18065857D01*
X200607142Y-18030142D01*
X200750000Y-17994428D01*
X200821428Y-17958714D01*
X200857142Y-17923000D01*
X200892857Y-17851571D01*
X200892857Y-17780142D01*
X200857142Y-17708714D01*
X200821428Y-17673000D01*
X200750000Y-17637285D01*
X200571428Y-17637285D01*
X200464285Y-17673000D01*
X199714285Y-18315857D02*
X199750000Y-18351571D01*
X199857142Y-18387285D01*
X199928571Y-18387285D01*
X200035714Y-18351571D01*
X200107142Y-18280142D01*
X200142857Y-18208714D01*
X200178571Y-18065857D01*
X200178571Y-17958714D01*
X200142857Y-17815857D01*
X200107142Y-17744428D01*
X200035714Y-17673000D01*
X199928571Y-17637285D01*
X199857142Y-17637285D01*
X199750000Y-17673000D01*
X199714285Y-17708714D01*
X199035714Y-18387285D02*
X199392857Y-18387285D01*
X199392857Y-17637285D01*
X198031428Y-17673000D02*
X198102857Y-17637285D01*
X198210000Y-17637285D01*
X198317142Y-17673000D01*
X198388571Y-17744428D01*
X198424285Y-17815857D01*
X198460000Y-17958714D01*
X198460000Y-18065857D01*
X198424285Y-18208714D01*
X198388571Y-18280142D01*
X198317142Y-18351571D01*
X198210000Y-18387285D01*
X198138571Y-18387285D01*
X198031428Y-18351571D01*
X197995714Y-18315857D01*
X197995714Y-18065857D01*
X198138571Y-18065857D01*
X197674285Y-18387285D02*
X197674285Y-17637285D01*
X197245714Y-18387285D01*
X197245714Y-17637285D01*
X196888571Y-18387285D02*
X196888571Y-17637285D01*
X196710000Y-17637285D01*
X196602857Y-17673000D01*
X196531428Y-17744428D01*
X196495714Y-17815857D01*
X196460000Y-17958714D01*
X196460000Y-18065857D01*
X196495714Y-18208714D01*
X196531428Y-18280142D01*
X196602857Y-18351571D01*
X196710000Y-18387285D01*
X196888571Y-18387285D01*
X205044142Y-11831000D02*
X205115571Y-11795285D01*
X205222714Y-11795285D01*
X205329857Y-11831000D01*
X205401285Y-11902428D01*
X205437000Y-11973857D01*
X205472714Y-12116714D01*
X205472714Y-12223857D01*
X205437000Y-12366714D01*
X205401285Y-12438142D01*
X205329857Y-12509571D01*
X205222714Y-12545285D01*
X205151285Y-12545285D01*
X205044142Y-12509571D01*
X205008428Y-12473857D01*
X205008428Y-12223857D01*
X205151285Y-12223857D01*
X204687000Y-12545285D02*
X204687000Y-11795285D01*
X204401285Y-11795285D01*
X204329857Y-11831000D01*
X204294142Y-11866714D01*
X204258428Y-11938142D01*
X204258428Y-12045285D01*
X204294142Y-12116714D01*
X204329857Y-12152428D01*
X204401285Y-12188142D01*
X204687000Y-12188142D01*
X203937000Y-12545285D02*
X203937000Y-11795285D01*
X203437000Y-11795285D02*
X203294142Y-11795285D01*
X203222714Y-11831000D01*
X203151285Y-11902428D01*
X203115571Y-12045285D01*
X203115571Y-12295285D01*
X203151285Y-12438142D01*
X203222714Y-12509571D01*
X203294142Y-12545285D01*
X203437000Y-12545285D01*
X203508428Y-12509571D01*
X203579857Y-12438142D01*
X203615571Y-12295285D01*
X203615571Y-12045285D01*
X203579857Y-11902428D01*
X203508428Y-11831000D01*
X203437000Y-11795285D01*
X202401285Y-12545285D02*
X202829857Y-12545285D01*
X202615571Y-12545285D02*
X202615571Y-11795285D01*
X202687000Y-11902428D01*
X202758428Y-11973857D01*
X202829857Y-12009571D01*
X200910714Y-12509571D02*
X200803571Y-12545285D01*
X200625000Y-12545285D01*
X200553571Y-12509571D01*
X200517857Y-12473857D01*
X200482142Y-12402428D01*
X200482142Y-12331000D01*
X200517857Y-12259571D01*
X200553571Y-12223857D01*
X200625000Y-12188142D01*
X200767857Y-12152428D01*
X200839285Y-12116714D01*
X200875000Y-12081000D01*
X200910714Y-12009571D01*
X200910714Y-11938142D01*
X200875000Y-11866714D01*
X200839285Y-11831000D01*
X200767857Y-11795285D01*
X200589285Y-11795285D01*
X200482142Y-11831000D01*
X200160714Y-12545285D02*
X200160714Y-11795285D01*
X199982142Y-11795285D01*
X199875000Y-11831000D01*
X199803571Y-11902428D01*
X199767857Y-11973857D01*
X199732142Y-12116714D01*
X199732142Y-12223857D01*
X199767857Y-12366714D01*
X199803571Y-12438142D01*
X199875000Y-12509571D01*
X199982142Y-12545285D01*
X200160714Y-12545285D01*
X199446428Y-12331000D02*
X199089285Y-12331000D01*
X199517857Y-12545285D02*
X199267857Y-11795285D01*
X199017857Y-12545285D01*
X198460000Y-11795285D02*
X198210000Y-12545285D01*
X197960000Y-11795285D01*
X197281428Y-12473857D02*
X197317142Y-12509571D01*
X197424285Y-12545285D01*
X197495714Y-12545285D01*
X197602857Y-12509571D01*
X197674285Y-12438142D01*
X197710000Y-12366714D01*
X197745714Y-12223857D01*
X197745714Y-12116714D01*
X197710000Y-11973857D01*
X197674285Y-11902428D01*
X197602857Y-11831000D01*
X197495714Y-11795285D01*
X197424285Y-11795285D01*
X197317142Y-11831000D01*
X197281428Y-11866714D01*
X196531428Y-12473857D02*
X196567142Y-12509571D01*
X196674285Y-12545285D01*
X196745714Y-12545285D01*
X196852857Y-12509571D01*
X196924285Y-12438142D01*
X196960000Y-12366714D01*
X196995714Y-12223857D01*
X196995714Y-12116714D01*
X196960000Y-11973857D01*
X196924285Y-11902428D01*
X196852857Y-11831000D01*
X196745714Y-11795285D01*
X196674285Y-11795285D01*
X196567142Y-11831000D01*
X196531428Y-11866714D01*
%TO.C,C16*%
D10*
X154785714Y-9214285D02*
X154880952Y-9309523D01*
X155166666Y-9404761D01*
X155357142Y-9404761D01*
X155642857Y-9309523D01*
X155833333Y-9119047D01*
X155928571Y-8928571D01*
X156023809Y-8547619D01*
X156023809Y-8261904D01*
X155928571Y-7880952D01*
X155833333Y-7690476D01*
X155642857Y-7500000D01*
X155357142Y-7404761D01*
X155166666Y-7404761D01*
X154880952Y-7500000D01*
X154785714Y-7595238D01*
X152880952Y-9404761D02*
X154023809Y-9404761D01*
X153452380Y-9404761D02*
X153452380Y-7404761D01*
X153642857Y-7690476D01*
X153833333Y-7880952D01*
X154023809Y-7976190D01*
X151166666Y-7404761D02*
X151547619Y-7404761D01*
X151738095Y-7500000D01*
X151833333Y-7595238D01*
X152023809Y-7880952D01*
X152119047Y-8261904D01*
X152119047Y-9023809D01*
X152023809Y-9214285D01*
X151928571Y-9309523D01*
X151738095Y-9404761D01*
X151357142Y-9404761D01*
X151166666Y-9309523D01*
X151071428Y-9214285D01*
X150976190Y-9023809D01*
X150976190Y-8547619D01*
X151071428Y-8357142D01*
X151166666Y-8261904D01*
X151357142Y-8166666D01*
X151738095Y-8166666D01*
X151928571Y-8261904D01*
X152023809Y-8357142D01*
X152119047Y-8547619D01*
%TO.C,X1*%
X147404761Y-8130952D02*
X149404761Y-9464285D01*
X147404761Y-9464285D02*
X149404761Y-8130952D01*
X149404761Y-11273809D02*
X149404761Y-10130952D01*
X149404761Y-10702380D02*
X147404761Y-10702380D01*
X147690476Y-10511904D01*
X147880952Y-10321428D01*
X147976190Y-10130952D01*
%TO.C,U2*%
X259523809Y-10904761D02*
X259523809Y-12523809D01*
X259428571Y-12714285D01*
X259333333Y-12809523D01*
X259142857Y-12904761D01*
X258761904Y-12904761D01*
X258571428Y-12809523D01*
X258476190Y-12714285D01*
X258380952Y-12523809D01*
X258380952Y-10904761D01*
X257523809Y-11095238D02*
X257428571Y-11000000D01*
X257238095Y-10904761D01*
X256761904Y-10904761D01*
X256571428Y-11000000D01*
X256476190Y-11095238D01*
X256380952Y-11285714D01*
X256380952Y-11476190D01*
X256476190Y-11761904D01*
X257619047Y-12904761D01*
X256380952Y-12904761D01*
%TO.C,R7*%
X261904761Y-20416666D02*
X260952380Y-19750000D01*
X261904761Y-19273809D02*
X259904761Y-19273809D01*
X259904761Y-20035714D01*
X260000000Y-20226190D01*
X260095238Y-20321428D01*
X260285714Y-20416666D01*
X260571428Y-20416666D01*
X260761904Y-20321428D01*
X260857142Y-20226190D01*
X260952380Y-20035714D01*
X260952380Y-19273809D01*
X259904761Y-21083333D02*
X259904761Y-22416666D01*
X261904761Y-21559523D01*
%TO.C,R6*%
X257904761Y-20416666D02*
X256952380Y-19750000D01*
X257904761Y-19273809D02*
X255904761Y-19273809D01*
X255904761Y-20035714D01*
X256000000Y-20226190D01*
X256095238Y-20321428D01*
X256285714Y-20416666D01*
X256571428Y-20416666D01*
X256761904Y-20321428D01*
X256857142Y-20226190D01*
X256952380Y-20035714D01*
X256952380Y-19273809D01*
X255904761Y-22130952D02*
X255904761Y-21750000D01*
X256000000Y-21559523D01*
X256095238Y-21464285D01*
X256380952Y-21273809D01*
X256761904Y-21178571D01*
X257523809Y-21178571D01*
X257714285Y-21273809D01*
X257809523Y-21369047D01*
X257904761Y-21559523D01*
X257904761Y-21940476D01*
X257809523Y-22130952D01*
X257714285Y-22226190D01*
X257523809Y-22321428D01*
X257047619Y-22321428D01*
X256857142Y-22226190D01*
X256761904Y-22130952D01*
X256666666Y-21940476D01*
X256666666Y-21559523D01*
X256761904Y-21369047D01*
X256857142Y-21273809D01*
X257047619Y-21178571D01*
%TO.C,R5*%
X37333333Y-23154761D02*
X38000000Y-22202380D01*
X38476190Y-23154761D02*
X38476190Y-21154761D01*
X37714285Y-21154761D01*
X37523809Y-21250000D01*
X37428571Y-21345238D01*
X37333333Y-21535714D01*
X37333333Y-21821428D01*
X37428571Y-22011904D01*
X37523809Y-22107142D01*
X37714285Y-22202380D01*
X38476190Y-22202380D01*
X35523809Y-21154761D02*
X36476190Y-21154761D01*
X36571428Y-22107142D01*
X36476190Y-22011904D01*
X36285714Y-21916666D01*
X35809523Y-21916666D01*
X35619047Y-22011904D01*
X35523809Y-22107142D01*
X35428571Y-22297619D01*
X35428571Y-22773809D01*
X35523809Y-22964285D01*
X35619047Y-23059523D01*
X35809523Y-23154761D01*
X36285714Y-23154761D01*
X36476190Y-23059523D01*
X36571428Y-22964285D01*
%TO.C,R4*%
X37333333Y-8404761D02*
X38000000Y-7452380D01*
X38476190Y-8404761D02*
X38476190Y-6404761D01*
X37714285Y-6404761D01*
X37523809Y-6500000D01*
X37428571Y-6595238D01*
X37333333Y-6785714D01*
X37333333Y-7071428D01*
X37428571Y-7261904D01*
X37523809Y-7357142D01*
X37714285Y-7452380D01*
X38476190Y-7452380D01*
X35619047Y-7071428D02*
X35619047Y-8404761D01*
X36095238Y-6309523D02*
X36571428Y-7738095D01*
X35333333Y-7738095D01*
%TO.C,R3*%
X171654761Y-18666666D02*
X170702380Y-18000000D01*
X171654761Y-17523809D02*
X169654761Y-17523809D01*
X169654761Y-18285714D01*
X169750000Y-18476190D01*
X169845238Y-18571428D01*
X170035714Y-18666666D01*
X170321428Y-18666666D01*
X170511904Y-18571428D01*
X170607142Y-18476190D01*
X170702380Y-18285714D01*
X170702380Y-17523809D01*
X169654761Y-19333333D02*
X169654761Y-20571428D01*
X170416666Y-19904761D01*
X170416666Y-20190476D01*
X170511904Y-20380952D01*
X170607142Y-20476190D01*
X170797619Y-20571428D01*
X171273809Y-20571428D01*
X171464285Y-20476190D01*
X171559523Y-20380952D01*
X171654761Y-20190476D01*
X171654761Y-19619047D01*
X171559523Y-19428571D01*
X171464285Y-19333333D01*
%TO.C,R2*%
X186217261Y-12479166D02*
X185264880Y-11812500D01*
X186217261Y-11336309D02*
X184217261Y-11336309D01*
X184217261Y-12098214D01*
X184312500Y-12288690D01*
X184407738Y-12383928D01*
X184598214Y-12479166D01*
X184883928Y-12479166D01*
X185074404Y-12383928D01*
X185169642Y-12288690D01*
X185264880Y-12098214D01*
X185264880Y-11336309D01*
X184407738Y-13241071D02*
X184312500Y-13336309D01*
X184217261Y-13526785D01*
X184217261Y-14002976D01*
X184312500Y-14193452D01*
X184407738Y-14288690D01*
X184598214Y-14383928D01*
X184788690Y-14383928D01*
X185074404Y-14288690D01*
X186217261Y-13145833D01*
X186217261Y-14383928D01*
%TO.C,R1*%
X35404761Y-14666666D02*
X34452380Y-14000000D01*
X35404761Y-13523809D02*
X33404761Y-13523809D01*
X33404761Y-14285714D01*
X33500000Y-14476190D01*
X33595238Y-14571428D01*
X33785714Y-14666666D01*
X34071428Y-14666666D01*
X34261904Y-14571428D01*
X34357142Y-14476190D01*
X34452380Y-14285714D01*
X34452380Y-13523809D01*
X35404761Y-16571428D02*
X35404761Y-15428571D01*
X35404761Y-16000000D02*
X33404761Y-16000000D01*
X33690476Y-15809523D01*
X33880952Y-15619047D01*
X33976190Y-15428571D01*
%TO.C,L1*%
X252404761Y-18166666D02*
X252404761Y-17214285D01*
X250404761Y-17214285D01*
X252404761Y-19880952D02*
X252404761Y-18738095D01*
X252404761Y-19309523D02*
X250404761Y-19309523D01*
X250690476Y-19119047D01*
X250880952Y-18928571D01*
X250976190Y-18738095D01*
%TO.C,J2*%
X21595238Y-15666666D02*
X20166666Y-15666666D01*
X19880952Y-15761904D01*
X19690476Y-15952380D01*
X19595238Y-16238095D01*
X19595238Y-16428571D01*
X21404761Y-14809523D02*
X21500000Y-14714285D01*
X21595238Y-14523809D01*
X21595238Y-14047619D01*
X21500000Y-13857142D01*
X21404761Y-13761904D01*
X21214285Y-13666666D01*
X21023809Y-13666666D01*
X20738095Y-13761904D01*
X19595238Y-14904761D01*
X19595238Y-13666666D01*
%TO.C,J1*%
X303904761Y-14333333D02*
X305333333Y-14333333D01*
X305619047Y-14238095D01*
X305809523Y-14047619D01*
X305904761Y-13761904D01*
X305904761Y-13571428D01*
X305904761Y-16333333D02*
X305904761Y-15190476D01*
X305904761Y-15761904D02*
X303904761Y-15761904D01*
X304190476Y-15571428D01*
X304380952Y-15380952D01*
X304476190Y-15190476D01*
%TO.C,C14*%
X264964285Y-13714285D02*
X265059523Y-13619047D01*
X265154761Y-13333333D01*
X265154761Y-13142857D01*
X265059523Y-12857142D01*
X264869047Y-12666666D01*
X264678571Y-12571428D01*
X264297619Y-12476190D01*
X264011904Y-12476190D01*
X263630952Y-12571428D01*
X263440476Y-12666666D01*
X263250000Y-12857142D01*
X263154761Y-13142857D01*
X263154761Y-13333333D01*
X263250000Y-13619047D01*
X263345238Y-13714285D01*
X265154761Y-15619047D02*
X265154761Y-14476190D01*
X265154761Y-15047619D02*
X263154761Y-15047619D01*
X263440476Y-14857142D01*
X263630952Y-14666666D01*
X263726190Y-14476190D01*
X263821428Y-17333333D02*
X265154761Y-17333333D01*
X263059523Y-16857142D02*
X264488095Y-16380952D01*
X264488095Y-17619047D01*
%TO.C,C13*%
X245214285Y-13714285D02*
X245309523Y-13619047D01*
X245404761Y-13333333D01*
X245404761Y-13142857D01*
X245309523Y-12857142D01*
X245119047Y-12666666D01*
X244928571Y-12571428D01*
X244547619Y-12476190D01*
X244261904Y-12476190D01*
X243880952Y-12571428D01*
X243690476Y-12666666D01*
X243500000Y-12857142D01*
X243404761Y-13142857D01*
X243404761Y-13333333D01*
X243500000Y-13619047D01*
X243595238Y-13714285D01*
X245404761Y-15619047D02*
X245404761Y-14476190D01*
X245404761Y-15047619D02*
X243404761Y-15047619D01*
X243690476Y-14857142D01*
X243880952Y-14666666D01*
X243976190Y-14476190D01*
X243404761Y-16285714D02*
X243404761Y-17523809D01*
X244166666Y-16857142D01*
X244166666Y-17142857D01*
X244261904Y-17333333D01*
X244357142Y-17428571D01*
X244547619Y-17523809D01*
X245023809Y-17523809D01*
X245214285Y-17428571D01*
X245309523Y-17333333D01*
X245404761Y-17142857D01*
X245404761Y-16571428D01*
X245309523Y-16380952D01*
X245214285Y-16285714D01*
%TO.C,C12*%
X166214285Y-25214285D02*
X166309523Y-25119047D01*
X166404761Y-24833333D01*
X166404761Y-24642857D01*
X166309523Y-24357142D01*
X166119047Y-24166666D01*
X165928571Y-24071428D01*
X165547619Y-23976190D01*
X165261904Y-23976190D01*
X164880952Y-24071428D01*
X164690476Y-24166666D01*
X164500000Y-24357142D01*
X164404761Y-24642857D01*
X164404761Y-24833333D01*
X164500000Y-25119047D01*
X164595238Y-25214285D01*
X166404761Y-27119047D02*
X166404761Y-25976190D01*
X166404761Y-26547619D02*
X164404761Y-26547619D01*
X164690476Y-26357142D01*
X164880952Y-26166666D01*
X164976190Y-25976190D01*
X164595238Y-27880952D02*
X164500000Y-27976190D01*
X164404761Y-28166666D01*
X164404761Y-28642857D01*
X164500000Y-28833333D01*
X164595238Y-28928571D01*
X164785714Y-29023809D01*
X164976190Y-29023809D01*
X165261904Y-28928571D01*
X166404761Y-27785714D01*
X166404761Y-29023809D01*
%TO.C,C11*%
X167785714Y-9964285D02*
X167880952Y-10059523D01*
X168166666Y-10154761D01*
X168357142Y-10154761D01*
X168642857Y-10059523D01*
X168833333Y-9869047D01*
X168928571Y-9678571D01*
X169023809Y-9297619D01*
X169023809Y-9011904D01*
X168928571Y-8630952D01*
X168833333Y-8440476D01*
X168642857Y-8250000D01*
X168357142Y-8154761D01*
X168166666Y-8154761D01*
X167880952Y-8250000D01*
X167785714Y-8345238D01*
X165880952Y-10154761D02*
X167023809Y-10154761D01*
X166452380Y-10154761D02*
X166452380Y-8154761D01*
X166642857Y-8440476D01*
X166833333Y-8630952D01*
X167023809Y-8726190D01*
X163976190Y-10154761D02*
X165119047Y-10154761D01*
X164547619Y-10154761D02*
X164547619Y-8154761D01*
X164738095Y-8440476D01*
X164928571Y-8630952D01*
X165119047Y-8726190D01*
%TO.C,C10*%
X150285714Y-20214285D02*
X150380952Y-20309523D01*
X150666666Y-20404761D01*
X150857142Y-20404761D01*
X151142857Y-20309523D01*
X151333333Y-20119047D01*
X151428571Y-19928571D01*
X151523809Y-19547619D01*
X151523809Y-19261904D01*
X151428571Y-18880952D01*
X151333333Y-18690476D01*
X151142857Y-18500000D01*
X150857142Y-18404761D01*
X150666666Y-18404761D01*
X150380952Y-18500000D01*
X150285714Y-18595238D01*
X148380952Y-20404761D02*
X149523809Y-20404761D01*
X148952380Y-20404761D02*
X148952380Y-18404761D01*
X149142857Y-18690476D01*
X149333333Y-18880952D01*
X149523809Y-18976190D01*
X147142857Y-18404761D02*
X146952380Y-18404761D01*
X146761904Y-18500000D01*
X146666666Y-18595238D01*
X146571428Y-18785714D01*
X146476190Y-19166666D01*
X146476190Y-19642857D01*
X146571428Y-20023809D01*
X146666666Y-20214285D01*
X146761904Y-20309523D01*
X146952380Y-20404761D01*
X147142857Y-20404761D01*
X147333333Y-20309523D01*
X147428571Y-20214285D01*
X147523809Y-20023809D01*
X147619047Y-19642857D01*
X147619047Y-19166666D01*
X147523809Y-18785714D01*
X147428571Y-18595238D01*
X147333333Y-18500000D01*
X147142857Y-18404761D01*
%TO.C,C9*%
X163714285Y-25166666D02*
X163809523Y-25071428D01*
X163904761Y-24785714D01*
X163904761Y-24595238D01*
X163809523Y-24309523D01*
X163619047Y-24119047D01*
X163428571Y-24023809D01*
X163047619Y-23928571D01*
X162761904Y-23928571D01*
X162380952Y-24023809D01*
X162190476Y-24119047D01*
X162000000Y-24309523D01*
X161904761Y-24595238D01*
X161904761Y-24785714D01*
X162000000Y-25071428D01*
X162095238Y-25166666D01*
X163904761Y-26119047D02*
X163904761Y-26500000D01*
X163809523Y-26690476D01*
X163714285Y-26785714D01*
X163428571Y-26976190D01*
X163047619Y-27071428D01*
X162285714Y-27071428D01*
X162095238Y-26976190D01*
X162000000Y-26880952D01*
X161904761Y-26690476D01*
X161904761Y-26309523D01*
X162000000Y-26119047D01*
X162095238Y-26023809D01*
X162285714Y-25928571D01*
X162761904Y-25928571D01*
X162952380Y-26023809D01*
X163047619Y-26119047D01*
X163142857Y-26309523D01*
X163142857Y-26690476D01*
X163047619Y-26880952D01*
X162952380Y-26976190D01*
X162761904Y-27071428D01*
%TO.C,C8*%
X26413333Y-13464285D02*
X26508571Y-13559523D01*
X26794285Y-13654761D01*
X26984761Y-13654761D01*
X27270476Y-13559523D01*
X27460952Y-13369047D01*
X27556190Y-13178571D01*
X27651428Y-12797619D01*
X27651428Y-12511904D01*
X27556190Y-12130952D01*
X27460952Y-11940476D01*
X27270476Y-11750000D01*
X26984761Y-11654761D01*
X26794285Y-11654761D01*
X26508571Y-11750000D01*
X26413333Y-11845238D01*
X25270476Y-12511904D02*
X25460952Y-12416666D01*
X25556190Y-12321428D01*
X25651428Y-12130952D01*
X25651428Y-12035714D01*
X25556190Y-11845238D01*
X25460952Y-11750000D01*
X25270476Y-11654761D01*
X24889523Y-11654761D01*
X24699047Y-11750000D01*
X24603809Y-11845238D01*
X24508571Y-12035714D01*
X24508571Y-12130952D01*
X24603809Y-12321428D01*
X24699047Y-12416666D01*
X24889523Y-12511904D01*
X25270476Y-12511904D01*
X25460952Y-12607142D01*
X25556190Y-12702380D01*
X25651428Y-12892857D01*
X25651428Y-13273809D01*
X25556190Y-13464285D01*
X25460952Y-13559523D01*
X25270476Y-13654761D01*
X24889523Y-13654761D01*
X24699047Y-13559523D01*
X24603809Y-13464285D01*
X24508571Y-13273809D01*
X24508571Y-12892857D01*
X24603809Y-12702380D01*
X24699047Y-12607142D01*
X24889523Y-12511904D01*
%TO.C,C6*%
X271214285Y-14666666D02*
X271309523Y-14571428D01*
X271404761Y-14285714D01*
X271404761Y-14095238D01*
X271309523Y-13809523D01*
X271119047Y-13619047D01*
X270928571Y-13523809D01*
X270547619Y-13428571D01*
X270261904Y-13428571D01*
X269880952Y-13523809D01*
X269690476Y-13619047D01*
X269500000Y-13809523D01*
X269404761Y-14095238D01*
X269404761Y-14285714D01*
X269500000Y-14571428D01*
X269595238Y-14666666D01*
X269404761Y-16380952D02*
X269404761Y-16000000D01*
X269500000Y-15809523D01*
X269595238Y-15714285D01*
X269880952Y-15523809D01*
X270261904Y-15428571D01*
X271023809Y-15428571D01*
X271214285Y-15523809D01*
X271309523Y-15619047D01*
X271404761Y-15809523D01*
X271404761Y-16190476D01*
X271309523Y-16380952D01*
X271214285Y-16476190D01*
X271023809Y-16571428D01*
X270547619Y-16571428D01*
X270357142Y-16476190D01*
X270261904Y-16380952D01*
X270166666Y-16190476D01*
X270166666Y-15809523D01*
X270261904Y-15619047D01*
X270357142Y-15523809D01*
X270547619Y-15428571D01*
%TO.C,C4*%
X161214285Y-25166666D02*
X161309523Y-25071428D01*
X161404761Y-24785714D01*
X161404761Y-24595238D01*
X161309523Y-24309523D01*
X161119047Y-24119047D01*
X160928571Y-24023809D01*
X160547619Y-23928571D01*
X160261904Y-23928571D01*
X159880952Y-24023809D01*
X159690476Y-24119047D01*
X159500000Y-24309523D01*
X159404761Y-24595238D01*
X159404761Y-24785714D01*
X159500000Y-25071428D01*
X159595238Y-25166666D01*
X160071428Y-26880952D02*
X161404761Y-26880952D01*
X159309523Y-26404761D02*
X160738095Y-25928571D01*
X160738095Y-27166666D01*
%TO.C,C3*%
X171464285Y-14166666D02*
X171559523Y-14071428D01*
X171654761Y-13785714D01*
X171654761Y-13595238D01*
X171559523Y-13309523D01*
X171369047Y-13119047D01*
X171178571Y-13023809D01*
X170797619Y-12928571D01*
X170511904Y-12928571D01*
X170130952Y-13023809D01*
X169940476Y-13119047D01*
X169750000Y-13309523D01*
X169654761Y-13595238D01*
X169654761Y-13785714D01*
X169750000Y-14071428D01*
X169845238Y-14166666D01*
X169654761Y-14833333D02*
X169654761Y-16071428D01*
X170416666Y-15404761D01*
X170416666Y-15690476D01*
X170511904Y-15880952D01*
X170607142Y-15976190D01*
X170797619Y-16071428D01*
X171273809Y-16071428D01*
X171464285Y-15976190D01*
X171559523Y-15880952D01*
X171654761Y-15690476D01*
X171654761Y-15119047D01*
X171559523Y-14928571D01*
X171464285Y-14833333D01*
%TO.C,C2*%
X144333333Y-17714285D02*
X144428571Y-17809523D01*
X144714285Y-17904761D01*
X144904761Y-17904761D01*
X145190476Y-17809523D01*
X145380952Y-17619047D01*
X145476190Y-17428571D01*
X145571428Y-17047619D01*
X145571428Y-16761904D01*
X145476190Y-16380952D01*
X145380952Y-16190476D01*
X145190476Y-16000000D01*
X144904761Y-15904761D01*
X144714285Y-15904761D01*
X144428571Y-16000000D01*
X144333333Y-16095238D01*
X143571428Y-16095238D02*
X143476190Y-16000000D01*
X143285714Y-15904761D01*
X142809523Y-15904761D01*
X142619047Y-16000000D01*
X142523809Y-16095238D01*
X142428571Y-16285714D01*
X142428571Y-16476190D01*
X142523809Y-16761904D01*
X143666666Y-17904761D01*
X142428571Y-17904761D01*
%TO.C,C1*%
X144333333Y-13714285D02*
X144428571Y-13809523D01*
X144714285Y-13904761D01*
X144904761Y-13904761D01*
X145190476Y-13809523D01*
X145380952Y-13619047D01*
X145476190Y-13428571D01*
X145571428Y-13047619D01*
X145571428Y-12761904D01*
X145476190Y-12380952D01*
X145380952Y-12190476D01*
X145190476Y-12000000D01*
X144904761Y-11904761D01*
X144714285Y-11904761D01*
X144428571Y-12000000D01*
X144333333Y-12095238D01*
X142428571Y-13904761D02*
X143571428Y-13904761D01*
X143000000Y-13904761D02*
X143000000Y-11904761D01*
X143190476Y-12190476D01*
X143380952Y-12380952D01*
X143571428Y-12476190D01*
%TD*%
M02*
