G04 #@! TF.GenerationSoftware,KiCad,Pcbnew,6.0.9-8da3e8f707~117~ubuntu22.04.1*
G04 #@! TF.CreationDate,2022-12-24T15:34:04-08:00*
G04 #@! TF.ProjectId,sao-wall,73616f2d-7761-46c6-9c2e-6b696361645f,rev?*
G04 #@! TF.SameCoordinates,Original*
G04 #@! TF.FileFunction,Legend,Bot*
G04 #@! TF.FilePolarity,Positive*
%FSLAX46Y46*%
G04 Gerber Fmt 4.6, Leading zero omitted, Abs format (unit mm)*
G04 Created by KiCad (PCBNEW 6.0.9-8da3e8f707~117~ubuntu22.04.1) date 2022-12-24 15:34:04*
%MOMM*%
%LPD*%
G01*
G04 APERTURE LIST*
%ADD10C,0.250000*%
%ADD11C,0.150000*%
%ADD12C,0.152400*%
%ADD13C,0.120000*%
%ADD14C,0.700000*%
%ADD15C,1.000000*%
%ADD16C,0.254000*%
G04 APERTURE END LIST*
D10*
X105345238Y-15684523D02*
X105154761Y-15779761D01*
X104773809Y-15779761D01*
X104583333Y-15684523D01*
X104488095Y-15494047D01*
X104488095Y-15398809D01*
X104583333Y-15208333D01*
X104773809Y-15113095D01*
X105059523Y-15113095D01*
X105250000Y-15017857D01*
X105345238Y-14827380D01*
X105345238Y-14732142D01*
X105250000Y-14541666D01*
X105059523Y-14446428D01*
X104773809Y-14446428D01*
X104583333Y-14541666D01*
X102773809Y-15779761D02*
X102773809Y-14732142D01*
X102869047Y-14541666D01*
X103059523Y-14446428D01*
X103440476Y-14446428D01*
X103630952Y-14541666D01*
X102773809Y-15684523D02*
X102964285Y-15779761D01*
X103440476Y-15779761D01*
X103630952Y-15684523D01*
X103726190Y-15494047D01*
X103726190Y-15303571D01*
X103630952Y-15113095D01*
X103440476Y-15017857D01*
X102964285Y-15017857D01*
X102773809Y-14922619D01*
X101535714Y-15779761D02*
X101726190Y-15684523D01*
X101821428Y-15589285D01*
X101916666Y-15398809D01*
X101916666Y-14827380D01*
X101821428Y-14636904D01*
X101726190Y-14541666D01*
X101535714Y-14446428D01*
X101250000Y-14446428D01*
X101059523Y-14541666D01*
X100964285Y-14636904D01*
X100869047Y-14827380D01*
X100869047Y-15398809D01*
X100964285Y-15589285D01*
X101059523Y-15684523D01*
X101250000Y-15779761D01*
X101535714Y-15779761D01*
X100011904Y-15017857D02*
X98488095Y-15017857D01*
X97726190Y-14446428D02*
X97345238Y-15779761D01*
X96964285Y-14827380D01*
X96583333Y-15779761D01*
X96202380Y-14446428D01*
X94583333Y-15779761D02*
X94583333Y-14732142D01*
X94678571Y-14541666D01*
X94869047Y-14446428D01*
X95250000Y-14446428D01*
X95440476Y-14541666D01*
X94583333Y-15684523D02*
X94773809Y-15779761D01*
X95250000Y-15779761D01*
X95440476Y-15684523D01*
X95535714Y-15494047D01*
X95535714Y-15303571D01*
X95440476Y-15113095D01*
X95250000Y-15017857D01*
X94773809Y-15017857D01*
X94583333Y-14922619D01*
X93345238Y-15779761D02*
X93535714Y-15684523D01*
X93630952Y-15494047D01*
X93630952Y-13779761D01*
X92297619Y-15779761D02*
X92488095Y-15684523D01*
X92583333Y-15494047D01*
X92583333Y-13779761D01*
X90297619Y-14446428D02*
X89535714Y-14446428D01*
X90011904Y-13779761D02*
X90011904Y-15494047D01*
X89916666Y-15684523D01*
X89726190Y-15779761D01*
X89535714Y-15779761D01*
X88583333Y-15779761D02*
X88773809Y-15684523D01*
X88869047Y-15589285D01*
X88964285Y-15398809D01*
X88964285Y-14827380D01*
X88869047Y-14636904D01*
X88773809Y-14541666D01*
X88583333Y-14446428D01*
X88297619Y-14446428D01*
X88107142Y-14541666D01*
X88011904Y-14636904D01*
X87916666Y-14827380D01*
X87916666Y-15398809D01*
X88011904Y-15589285D01*
X88107142Y-15684523D01*
X88297619Y-15779761D01*
X88583333Y-15779761D01*
X87059523Y-15779761D02*
X87059523Y-14446428D01*
X87059523Y-14636904D02*
X86964285Y-14541666D01*
X86773809Y-14446428D01*
X86488095Y-14446428D01*
X86297619Y-14541666D01*
X86202380Y-14732142D01*
X86202380Y-15779761D01*
X86202380Y-14732142D02*
X86107142Y-14541666D01*
X85916666Y-14446428D01*
X85630952Y-14446428D01*
X85440476Y-14541666D01*
X85345238Y-14732142D01*
X85345238Y-15779761D01*
X83154761Y-14827380D02*
X83250000Y-14732142D01*
X83440476Y-14636904D01*
X83630952Y-14636904D01*
X83821428Y-14732142D01*
X83916666Y-14827380D01*
X84011904Y-15017857D01*
X84011904Y-15208333D01*
X83916666Y-15398809D01*
X83821428Y-15494047D01*
X83630952Y-15589285D01*
X83440476Y-15589285D01*
X83250000Y-15494047D01*
X83154761Y-15398809D01*
X83154761Y-14636904D02*
X83154761Y-15398809D01*
X83059523Y-15494047D01*
X82964285Y-15494047D01*
X82773809Y-15398809D01*
X82678571Y-15208333D01*
X82678571Y-14732142D01*
X82869047Y-14446428D01*
X83154761Y-14255952D01*
X83535714Y-14160714D01*
X83916666Y-14255952D01*
X84202380Y-14446428D01*
X84392857Y-14732142D01*
X84488095Y-15113095D01*
X84392857Y-15494047D01*
X84202380Y-15779761D01*
X83916666Y-15970238D01*
X83535714Y-16065476D01*
X83154761Y-15970238D01*
X82869047Y-15779761D01*
X82107142Y-14446428D02*
X81345238Y-14446428D01*
X81821428Y-13779761D02*
X81821428Y-15494047D01*
X81726190Y-15684523D01*
X81535714Y-15779761D01*
X81345238Y-15779761D01*
X80392857Y-15779761D02*
X80583333Y-15684523D01*
X80678571Y-15589285D01*
X80773809Y-15398809D01*
X80773809Y-14827380D01*
X80678571Y-14636904D01*
X80583333Y-14541666D01*
X80392857Y-14446428D01*
X80107142Y-14446428D01*
X79916666Y-14541666D01*
X79821428Y-14636904D01*
X79726190Y-14827380D01*
X79726190Y-15398809D01*
X79821428Y-15589285D01*
X79916666Y-15684523D01*
X80107142Y-15779761D01*
X80392857Y-15779761D01*
X78869047Y-15779761D02*
X78869047Y-14446428D01*
X78869047Y-14636904D02*
X78773809Y-14541666D01*
X78583333Y-14446428D01*
X78297619Y-14446428D01*
X78107142Y-14541666D01*
X78011904Y-14732142D01*
X78011904Y-15779761D01*
X78011904Y-14732142D02*
X77916666Y-14541666D01*
X77726190Y-14446428D01*
X77440476Y-14446428D01*
X77250000Y-14541666D01*
X77154761Y-14732142D01*
X77154761Y-15779761D01*
X76202380Y-15779761D02*
X76202380Y-13779761D01*
X76011904Y-15017857D02*
X75440476Y-15779761D01*
X75440476Y-14446428D02*
X76202380Y-15208333D01*
X74583333Y-15589285D02*
X74488095Y-15684523D01*
X74583333Y-15779761D01*
X74678571Y-15684523D01*
X74583333Y-15589285D01*
X74583333Y-15779761D01*
X73630952Y-15779761D02*
X73630952Y-14446428D01*
X73630952Y-13779761D02*
X73726190Y-13875000D01*
X73630952Y-13970238D01*
X73535714Y-13875000D01*
X73630952Y-13779761D01*
X73630952Y-13970238D01*
X72678571Y-14446428D02*
X72678571Y-15779761D01*
X72678571Y-14636904D02*
X72583333Y-14541666D01*
X72392857Y-14446428D01*
X72107142Y-14446428D01*
X71916666Y-14541666D01*
X71821428Y-14732142D01*
X71821428Y-15779761D01*
X69345238Y-15779761D02*
X69345238Y-13779761D01*
X68869047Y-13779761D01*
X68583333Y-13875000D01*
X68392857Y-14065476D01*
X68297619Y-14255952D01*
X68202380Y-14636904D01*
X68202380Y-14922619D01*
X68297619Y-15303571D01*
X68392857Y-15494047D01*
X68583333Y-15684523D01*
X68869047Y-15779761D01*
X69345238Y-15779761D01*
X66583333Y-15684523D02*
X66773809Y-15779761D01*
X67154761Y-15779761D01*
X67345238Y-15684523D01*
X67440476Y-15494047D01*
X67440476Y-14732142D01*
X67345238Y-14541666D01*
X67154761Y-14446428D01*
X66773809Y-14446428D01*
X66583333Y-14541666D01*
X66488095Y-14732142D01*
X66488095Y-14922619D01*
X67440476Y-15113095D01*
X64773809Y-15684523D02*
X64964285Y-15779761D01*
X65345238Y-15779761D01*
X65535714Y-15684523D01*
X65630952Y-15589285D01*
X65726190Y-15398809D01*
X65726190Y-14827380D01*
X65630952Y-14636904D01*
X65535714Y-14541666D01*
X65345238Y-14446428D01*
X64964285Y-14446428D01*
X64773809Y-14541666D01*
X64011904Y-13970238D02*
X63916666Y-13875000D01*
X63726190Y-13779761D01*
X63250000Y-13779761D01*
X63059523Y-13875000D01*
X62964285Y-13970238D01*
X62869047Y-14160714D01*
X62869047Y-14351190D01*
X62964285Y-14636904D01*
X64107142Y-15779761D01*
X62869047Y-15779761D01*
X61630952Y-13779761D02*
X61440476Y-13779761D01*
X61250000Y-13875000D01*
X61154761Y-13970238D01*
X61059523Y-14160714D01*
X60964285Y-14541666D01*
X60964285Y-15017857D01*
X61059523Y-15398809D01*
X61154761Y-15589285D01*
X61250000Y-15684523D01*
X61440476Y-15779761D01*
X61630952Y-15779761D01*
X61821428Y-15684523D01*
X61916666Y-15589285D01*
X62011904Y-15398809D01*
X62107142Y-15017857D01*
X62107142Y-14541666D01*
X62011904Y-14160714D01*
X61916666Y-13970238D01*
X61821428Y-13875000D01*
X61630952Y-13779761D01*
X60202380Y-13970238D02*
X60107142Y-13875000D01*
X59916666Y-13779761D01*
X59440476Y-13779761D01*
X59250000Y-13875000D01*
X59154761Y-13970238D01*
X59059523Y-14160714D01*
X59059523Y-14351190D01*
X59154761Y-14636904D01*
X60297619Y-15779761D01*
X59059523Y-15779761D01*
X58297619Y-13970238D02*
X58202380Y-13875000D01*
X58011904Y-13779761D01*
X57535714Y-13779761D01*
X57345238Y-13875000D01*
X57250000Y-13970238D01*
X57154761Y-14160714D01*
X57154761Y-14351190D01*
X57250000Y-14636904D01*
X58392857Y-15779761D01*
X57154761Y-15779761D01*
D11*
G04 #@! TO.C,U1*
X166902380Y-14238095D02*
X167711904Y-14238095D01*
X167807142Y-14285714D01*
X167854761Y-14333333D01*
X167902380Y-14428571D01*
X167902380Y-14619047D01*
X167854761Y-14714285D01*
X167807142Y-14761904D01*
X167711904Y-14809523D01*
X166902380Y-14809523D01*
X167902380Y-15809523D02*
X167902380Y-15238095D01*
X167902380Y-15523809D02*
X166902380Y-15523809D01*
X167045238Y-15428571D01*
X167140476Y-15333333D01*
X167188095Y-15238095D01*
D10*
G04 #@! TO.C,Q3*
X189190476Y-15070238D02*
X189380952Y-14975000D01*
X189571428Y-14784523D01*
X189857142Y-14498809D01*
X190047619Y-14403571D01*
X190238095Y-14403571D01*
X190142857Y-14879761D02*
X190333333Y-14784523D01*
X190523809Y-14594047D01*
X190619047Y-14213095D01*
X190619047Y-13546428D01*
X190523809Y-13165476D01*
X190333333Y-12975000D01*
X190142857Y-12879761D01*
X189761904Y-12879761D01*
X189571428Y-12975000D01*
X189380952Y-13165476D01*
X189285714Y-13546428D01*
X189285714Y-14213095D01*
X189380952Y-14594047D01*
X189571428Y-14784523D01*
X189761904Y-14879761D01*
X190142857Y-14879761D01*
X188619047Y-12879761D02*
X187380952Y-12879761D01*
X188047619Y-13641666D01*
X187761904Y-13641666D01*
X187571428Y-13736904D01*
X187476190Y-13832142D01*
X187380952Y-14022619D01*
X187380952Y-14498809D01*
X187476190Y-14689285D01*
X187571428Y-14784523D01*
X187761904Y-14879761D01*
X188333333Y-14879761D01*
X188523809Y-14784523D01*
X188619047Y-14689285D01*
G04 #@! TO.C,Q2*
X110440476Y-14670238D02*
X110630952Y-14575000D01*
X110821428Y-14384523D01*
X111107142Y-14098809D01*
X111297619Y-14003571D01*
X111488095Y-14003571D01*
X111392857Y-14479761D02*
X111583333Y-14384523D01*
X111773809Y-14194047D01*
X111869047Y-13813095D01*
X111869047Y-13146428D01*
X111773809Y-12765476D01*
X111583333Y-12575000D01*
X111392857Y-12479761D01*
X111011904Y-12479761D01*
X110821428Y-12575000D01*
X110630952Y-12765476D01*
X110535714Y-13146428D01*
X110535714Y-13813095D01*
X110630952Y-14194047D01*
X110821428Y-14384523D01*
X111011904Y-14479761D01*
X111392857Y-14479761D01*
X109773809Y-12670238D02*
X109678571Y-12575000D01*
X109488095Y-12479761D01*
X109011904Y-12479761D01*
X108821428Y-12575000D01*
X108726190Y-12670238D01*
X108630952Y-12860714D01*
X108630952Y-13051190D01*
X108726190Y-13336904D01*
X109869047Y-14479761D01*
X108630952Y-14479761D01*
G04 #@! TO.C,Q1*
X30040476Y-9270238D02*
X30230952Y-9175000D01*
X30421428Y-8984523D01*
X30707142Y-8698809D01*
X30897619Y-8603571D01*
X31088095Y-8603571D01*
X30992857Y-9079761D02*
X31183333Y-8984523D01*
X31373809Y-8794047D01*
X31469047Y-8413095D01*
X31469047Y-7746428D01*
X31373809Y-7365476D01*
X31183333Y-7175000D01*
X30992857Y-7079761D01*
X30611904Y-7079761D01*
X30421428Y-7175000D01*
X30230952Y-7365476D01*
X30135714Y-7746428D01*
X30135714Y-8413095D01*
X30230952Y-8794047D01*
X30421428Y-8984523D01*
X30611904Y-9079761D01*
X30992857Y-9079761D01*
X28230952Y-9079761D02*
X29373809Y-9079761D01*
X28802380Y-9079761D02*
X28802380Y-7079761D01*
X28992857Y-7365476D01*
X29183333Y-7555952D01*
X29373809Y-7651190D01*
G04 #@! TO.C,R8*
X104583333Y-11092261D02*
X105250000Y-10139880D01*
X105726190Y-11092261D02*
X105726190Y-9092261D01*
X104964285Y-9092261D01*
X104773809Y-9187500D01*
X104678571Y-9282738D01*
X104583333Y-9473214D01*
X104583333Y-9758928D01*
X104678571Y-9949404D01*
X104773809Y-10044642D01*
X104964285Y-10139880D01*
X105726190Y-10139880D01*
X103440476Y-9949404D02*
X103630952Y-9854166D01*
X103726190Y-9758928D01*
X103821428Y-9568452D01*
X103821428Y-9473214D01*
X103726190Y-9282738D01*
X103630952Y-9187500D01*
X103440476Y-9092261D01*
X103059523Y-9092261D01*
X102869047Y-9187500D01*
X102773809Y-9282738D01*
X102678571Y-9473214D01*
X102678571Y-9568452D01*
X102773809Y-9758928D01*
X102869047Y-9854166D01*
X103059523Y-9949404D01*
X103440476Y-9949404D01*
X103630952Y-10044642D01*
X103726190Y-10139880D01*
X103821428Y-10330357D01*
X103821428Y-10711309D01*
X103726190Y-10901785D01*
X103630952Y-10997023D01*
X103440476Y-11092261D01*
X103059523Y-11092261D01*
X102869047Y-10997023D01*
X102773809Y-10901785D01*
X102678571Y-10711309D01*
X102678571Y-10330357D01*
X102773809Y-10139880D01*
X102869047Y-10044642D01*
X103059523Y-9949404D01*
G04 #@! TO.C,TP1*
X171523809Y-27552761D02*
X170380952Y-27552761D01*
X170952380Y-29552761D02*
X170952380Y-27552761D01*
X169714285Y-29552761D02*
X169714285Y-27552761D01*
X168952380Y-27552761D01*
X168761904Y-27648000D01*
X168666666Y-27743238D01*
X168571428Y-27933714D01*
X168571428Y-28219428D01*
X168666666Y-28409904D01*
X168761904Y-28505142D01*
X168952380Y-28600380D01*
X169714285Y-28600380D01*
X166666666Y-29552761D02*
X167809523Y-29552761D01*
X167238095Y-29552761D02*
X167238095Y-27552761D01*
X167428571Y-27838476D01*
X167619047Y-28028952D01*
X167809523Y-28124190D01*
G04 #@! TO.C,TDI1*
X172904761Y-12648000D02*
X172904761Y-13790857D01*
X174904761Y-13219428D02*
X172904761Y-13219428D01*
X174904761Y-14457523D02*
X172904761Y-14457523D01*
X172904761Y-14933714D01*
X173000000Y-15219428D01*
X173190476Y-15409904D01*
X173380952Y-15505142D01*
X173761904Y-15600380D01*
X174047619Y-15600380D01*
X174428571Y-15505142D01*
X174619047Y-15409904D01*
X174809523Y-15219428D01*
X174904761Y-14933714D01*
X174904761Y-14457523D01*
X174904761Y-16457523D02*
X172904761Y-16457523D01*
X174904761Y-18457523D02*
X174904761Y-17314666D01*
X174904761Y-17886095D02*
X172904761Y-17886095D01*
X173190476Y-17695619D01*
X173380952Y-17505142D01*
X173476190Y-17314666D01*
G04 #@! TO.C,TDO1*
X175444761Y-12076571D02*
X175444761Y-13219428D01*
X177444761Y-12648000D02*
X175444761Y-12648000D01*
X177444761Y-13886095D02*
X175444761Y-13886095D01*
X175444761Y-14362285D01*
X175540000Y-14648000D01*
X175730476Y-14838476D01*
X175920952Y-14933714D01*
X176301904Y-15028952D01*
X176587619Y-15028952D01*
X176968571Y-14933714D01*
X177159047Y-14838476D01*
X177349523Y-14648000D01*
X177444761Y-14362285D01*
X177444761Y-13886095D01*
X175444761Y-16267047D02*
X175444761Y-16648000D01*
X175540000Y-16838476D01*
X175730476Y-17028952D01*
X176111428Y-17124190D01*
X176778095Y-17124190D01*
X177159047Y-17028952D01*
X177349523Y-16838476D01*
X177444761Y-16648000D01*
X177444761Y-16267047D01*
X177349523Y-16076571D01*
X177159047Y-15886095D01*
X176778095Y-15790857D01*
X176111428Y-15790857D01*
X175730476Y-15886095D01*
X175540000Y-16076571D01*
X175444761Y-16267047D01*
X177444761Y-19028952D02*
X177444761Y-17886095D01*
X177444761Y-18457523D02*
X175444761Y-18457523D01*
X175730476Y-18267047D01*
X175920952Y-18076571D01*
X176016190Y-17886095D01*
G04 #@! TO.C,TMS1*
X177984761Y-12028952D02*
X177984761Y-13171809D01*
X179984761Y-12600380D02*
X177984761Y-12600380D01*
X179984761Y-13838476D02*
X177984761Y-13838476D01*
X179413333Y-14505142D01*
X177984761Y-15171809D01*
X179984761Y-15171809D01*
X179889523Y-16028952D02*
X179984761Y-16314666D01*
X179984761Y-16790857D01*
X179889523Y-16981333D01*
X179794285Y-17076571D01*
X179603809Y-17171809D01*
X179413333Y-17171809D01*
X179222857Y-17076571D01*
X179127619Y-16981333D01*
X179032380Y-16790857D01*
X178937142Y-16409904D01*
X178841904Y-16219428D01*
X178746666Y-16124190D01*
X178556190Y-16028952D01*
X178365714Y-16028952D01*
X178175238Y-16124190D01*
X178080000Y-16219428D01*
X177984761Y-16409904D01*
X177984761Y-16886095D01*
X178080000Y-17171809D01*
X179984761Y-19076571D02*
X179984761Y-17933714D01*
X179984761Y-18505142D02*
X177984761Y-18505142D01*
X178270476Y-18314666D01*
X178460952Y-18124190D01*
X178556190Y-17933714D01*
G04 #@! TO.C,TCK1*
X180524761Y-12124190D02*
X180524761Y-13267047D01*
X182524761Y-12695619D02*
X180524761Y-12695619D01*
X182334285Y-15076571D02*
X182429523Y-14981333D01*
X182524761Y-14695619D01*
X182524761Y-14505142D01*
X182429523Y-14219428D01*
X182239047Y-14028952D01*
X182048571Y-13933714D01*
X181667619Y-13838476D01*
X181381904Y-13838476D01*
X181000952Y-13933714D01*
X180810476Y-14028952D01*
X180620000Y-14219428D01*
X180524761Y-14505142D01*
X180524761Y-14695619D01*
X180620000Y-14981333D01*
X180715238Y-15076571D01*
X182524761Y-15933714D02*
X180524761Y-15933714D01*
X182524761Y-17076571D02*
X181381904Y-16219428D01*
X180524761Y-17076571D02*
X181667619Y-15933714D01*
X182524761Y-18981333D02*
X182524761Y-17838476D01*
X182524761Y-18409904D02*
X180524761Y-18409904D01*
X180810476Y-18219428D01*
X181000952Y-18028952D01*
X181096190Y-17838476D01*
G04 #@! TO.C,CON1*
X142359285Y-21141428D02*
X142454523Y-21046190D01*
X142549761Y-20760476D01*
X142549761Y-20570000D01*
X142454523Y-20284285D01*
X142264047Y-20093809D01*
X142073571Y-19998571D01*
X141692619Y-19903333D01*
X141406904Y-19903333D01*
X141025952Y-19998571D01*
X140835476Y-20093809D01*
X140645000Y-20284285D01*
X140549761Y-20570000D01*
X140549761Y-20760476D01*
X140645000Y-21046190D01*
X140740238Y-21141428D01*
X140549761Y-22379523D02*
X140549761Y-22760476D01*
X140645000Y-22950952D01*
X140835476Y-23141428D01*
X141216428Y-23236666D01*
X141883095Y-23236666D01*
X142264047Y-23141428D01*
X142454523Y-22950952D01*
X142549761Y-22760476D01*
X142549761Y-22379523D01*
X142454523Y-22189047D01*
X142264047Y-21998571D01*
X141883095Y-21903333D01*
X141216428Y-21903333D01*
X140835476Y-21998571D01*
X140645000Y-22189047D01*
X140549761Y-22379523D01*
X142549761Y-24093809D02*
X140549761Y-24093809D01*
X142549761Y-25236666D01*
X140549761Y-25236666D01*
X142549761Y-27236666D02*
X142549761Y-26093809D01*
X142549761Y-26665238D02*
X140549761Y-26665238D01*
X140835476Y-26474761D01*
X141025952Y-26284285D01*
X141121190Y-26093809D01*
G04 #@! TO.C,X5*
X281619047Y-8062761D02*
X280285714Y-10062761D01*
X280285714Y-8062761D02*
X281619047Y-10062761D01*
X278571428Y-8062761D02*
X279523809Y-8062761D01*
X279619047Y-9015142D01*
X279523809Y-8919904D01*
X279333333Y-8824666D01*
X278857142Y-8824666D01*
X278666666Y-8919904D01*
X278571428Y-9015142D01*
X278476190Y-9205619D01*
X278476190Y-9681809D01*
X278571428Y-9872285D01*
X278666666Y-9967523D01*
X278857142Y-10062761D01*
X279333333Y-10062761D01*
X279523809Y-9967523D01*
X279619047Y-9872285D01*
D11*
X285044142Y-17673000D02*
X285115571Y-17637285D01*
X285222714Y-17637285D01*
X285329857Y-17673000D01*
X285401285Y-17744428D01*
X285437000Y-17815857D01*
X285472714Y-17958714D01*
X285472714Y-18065857D01*
X285437000Y-18208714D01*
X285401285Y-18280142D01*
X285329857Y-18351571D01*
X285222714Y-18387285D01*
X285151285Y-18387285D01*
X285044142Y-18351571D01*
X285008428Y-18315857D01*
X285008428Y-18065857D01*
X285151285Y-18065857D01*
X284687000Y-18387285D02*
X284687000Y-17637285D01*
X284401285Y-17637285D01*
X284329857Y-17673000D01*
X284294142Y-17708714D01*
X284258428Y-17780142D01*
X284258428Y-17887285D01*
X284294142Y-17958714D01*
X284329857Y-17994428D01*
X284401285Y-18030142D01*
X284687000Y-18030142D01*
X283937000Y-18387285D02*
X283937000Y-17637285D01*
X283437000Y-17637285D02*
X283294142Y-17637285D01*
X283222714Y-17673000D01*
X283151285Y-17744428D01*
X283115571Y-17887285D01*
X283115571Y-18137285D01*
X283151285Y-18280142D01*
X283222714Y-18351571D01*
X283294142Y-18387285D01*
X283437000Y-18387285D01*
X283508428Y-18351571D01*
X283579857Y-18280142D01*
X283615571Y-18137285D01*
X283615571Y-17887285D01*
X283579857Y-17744428D01*
X283508428Y-17673000D01*
X283437000Y-17637285D01*
X282829857Y-17708714D02*
X282794142Y-17673000D01*
X282722714Y-17637285D01*
X282544142Y-17637285D01*
X282472714Y-17673000D01*
X282437000Y-17708714D01*
X282401285Y-17780142D01*
X282401285Y-17851571D01*
X282437000Y-17958714D01*
X282865571Y-18387285D01*
X282401285Y-18387285D01*
X280892857Y-18351571D02*
X280785714Y-18387285D01*
X280607142Y-18387285D01*
X280535714Y-18351571D01*
X280500000Y-18315857D01*
X280464285Y-18244428D01*
X280464285Y-18173000D01*
X280500000Y-18101571D01*
X280535714Y-18065857D01*
X280607142Y-18030142D01*
X280750000Y-17994428D01*
X280821428Y-17958714D01*
X280857142Y-17923000D01*
X280892857Y-17851571D01*
X280892857Y-17780142D01*
X280857142Y-17708714D01*
X280821428Y-17673000D01*
X280750000Y-17637285D01*
X280571428Y-17637285D01*
X280464285Y-17673000D01*
X279714285Y-18315857D02*
X279750000Y-18351571D01*
X279857142Y-18387285D01*
X279928571Y-18387285D01*
X280035714Y-18351571D01*
X280107142Y-18280142D01*
X280142857Y-18208714D01*
X280178571Y-18065857D01*
X280178571Y-17958714D01*
X280142857Y-17815857D01*
X280107142Y-17744428D01*
X280035714Y-17673000D01*
X279928571Y-17637285D01*
X279857142Y-17637285D01*
X279750000Y-17673000D01*
X279714285Y-17708714D01*
X279035714Y-18387285D02*
X279392857Y-18387285D01*
X279392857Y-17637285D01*
X278031428Y-17673000D02*
X278102857Y-17637285D01*
X278210000Y-17637285D01*
X278317142Y-17673000D01*
X278388571Y-17744428D01*
X278424285Y-17815857D01*
X278460000Y-17958714D01*
X278460000Y-18065857D01*
X278424285Y-18208714D01*
X278388571Y-18280142D01*
X278317142Y-18351571D01*
X278210000Y-18387285D01*
X278138571Y-18387285D01*
X278031428Y-18351571D01*
X277995714Y-18315857D01*
X277995714Y-18065857D01*
X278138571Y-18065857D01*
X277674285Y-18387285D02*
X277674285Y-17637285D01*
X277245714Y-18387285D01*
X277245714Y-17637285D01*
X276888571Y-18387285D02*
X276888571Y-17637285D01*
X276710000Y-17637285D01*
X276602857Y-17673000D01*
X276531428Y-17744428D01*
X276495714Y-17815857D01*
X276460000Y-17958714D01*
X276460000Y-18065857D01*
X276495714Y-18208714D01*
X276531428Y-18280142D01*
X276602857Y-18351571D01*
X276710000Y-18387285D01*
X276888571Y-18387285D01*
X285044142Y-11831000D02*
X285115571Y-11795285D01*
X285222714Y-11795285D01*
X285329857Y-11831000D01*
X285401285Y-11902428D01*
X285437000Y-11973857D01*
X285472714Y-12116714D01*
X285472714Y-12223857D01*
X285437000Y-12366714D01*
X285401285Y-12438142D01*
X285329857Y-12509571D01*
X285222714Y-12545285D01*
X285151285Y-12545285D01*
X285044142Y-12509571D01*
X285008428Y-12473857D01*
X285008428Y-12223857D01*
X285151285Y-12223857D01*
X284687000Y-12545285D02*
X284687000Y-11795285D01*
X284401285Y-11795285D01*
X284329857Y-11831000D01*
X284294142Y-11866714D01*
X284258428Y-11938142D01*
X284258428Y-12045285D01*
X284294142Y-12116714D01*
X284329857Y-12152428D01*
X284401285Y-12188142D01*
X284687000Y-12188142D01*
X283937000Y-12545285D02*
X283937000Y-11795285D01*
X283437000Y-11795285D02*
X283294142Y-11795285D01*
X283222714Y-11831000D01*
X283151285Y-11902428D01*
X283115571Y-12045285D01*
X283115571Y-12295285D01*
X283151285Y-12438142D01*
X283222714Y-12509571D01*
X283294142Y-12545285D01*
X283437000Y-12545285D01*
X283508428Y-12509571D01*
X283579857Y-12438142D01*
X283615571Y-12295285D01*
X283615571Y-12045285D01*
X283579857Y-11902428D01*
X283508428Y-11831000D01*
X283437000Y-11795285D01*
X282401285Y-12545285D02*
X282829857Y-12545285D01*
X282615571Y-12545285D02*
X282615571Y-11795285D01*
X282687000Y-11902428D01*
X282758428Y-11973857D01*
X282829857Y-12009571D01*
X280910714Y-12509571D02*
X280803571Y-12545285D01*
X280625000Y-12545285D01*
X280553571Y-12509571D01*
X280517857Y-12473857D01*
X280482142Y-12402428D01*
X280482142Y-12331000D01*
X280517857Y-12259571D01*
X280553571Y-12223857D01*
X280625000Y-12188142D01*
X280767857Y-12152428D01*
X280839285Y-12116714D01*
X280875000Y-12081000D01*
X280910714Y-12009571D01*
X280910714Y-11938142D01*
X280875000Y-11866714D01*
X280839285Y-11831000D01*
X280767857Y-11795285D01*
X280589285Y-11795285D01*
X280482142Y-11831000D01*
X280160714Y-12545285D02*
X280160714Y-11795285D01*
X279982142Y-11795285D01*
X279875000Y-11831000D01*
X279803571Y-11902428D01*
X279767857Y-11973857D01*
X279732142Y-12116714D01*
X279732142Y-12223857D01*
X279767857Y-12366714D01*
X279803571Y-12438142D01*
X279875000Y-12509571D01*
X279982142Y-12545285D01*
X280160714Y-12545285D01*
X279446428Y-12331000D02*
X279089285Y-12331000D01*
X279517857Y-12545285D02*
X279267857Y-11795285D01*
X279017857Y-12545285D01*
X278460000Y-11795285D02*
X278210000Y-12545285D01*
X277960000Y-11795285D01*
X277281428Y-12473857D02*
X277317142Y-12509571D01*
X277424285Y-12545285D01*
X277495714Y-12545285D01*
X277602857Y-12509571D01*
X277674285Y-12438142D01*
X277710000Y-12366714D01*
X277745714Y-12223857D01*
X277745714Y-12116714D01*
X277710000Y-11973857D01*
X277674285Y-11902428D01*
X277602857Y-11831000D01*
X277495714Y-11795285D01*
X277424285Y-11795285D01*
X277317142Y-11831000D01*
X277281428Y-11866714D01*
X276531428Y-12473857D02*
X276567142Y-12509571D01*
X276674285Y-12545285D01*
X276745714Y-12545285D01*
X276852857Y-12509571D01*
X276924285Y-12438142D01*
X276960000Y-12366714D01*
X276995714Y-12223857D01*
X276995714Y-12116714D01*
X276960000Y-11973857D01*
X276924285Y-11902428D01*
X276852857Y-11831000D01*
X276745714Y-11795285D01*
X276674285Y-11795285D01*
X276567142Y-11831000D01*
X276531428Y-11866714D01*
D10*
G04 #@! TO.C,X3*
X121619047Y-8062761D02*
X120285714Y-10062761D01*
X120285714Y-8062761D02*
X121619047Y-10062761D01*
X119714285Y-8062761D02*
X118476190Y-8062761D01*
X119142857Y-8824666D01*
X118857142Y-8824666D01*
X118666666Y-8919904D01*
X118571428Y-9015142D01*
X118476190Y-9205619D01*
X118476190Y-9681809D01*
X118571428Y-9872285D01*
X118666666Y-9967523D01*
X118857142Y-10062761D01*
X119428571Y-10062761D01*
X119619047Y-9967523D01*
X119714285Y-9872285D01*
D11*
X125044142Y-17673000D02*
X125115571Y-17637285D01*
X125222714Y-17637285D01*
X125329857Y-17673000D01*
X125401285Y-17744428D01*
X125437000Y-17815857D01*
X125472714Y-17958714D01*
X125472714Y-18065857D01*
X125437000Y-18208714D01*
X125401285Y-18280142D01*
X125329857Y-18351571D01*
X125222714Y-18387285D01*
X125151285Y-18387285D01*
X125044142Y-18351571D01*
X125008428Y-18315857D01*
X125008428Y-18065857D01*
X125151285Y-18065857D01*
X124687000Y-18387285D02*
X124687000Y-17637285D01*
X124401285Y-17637285D01*
X124329857Y-17673000D01*
X124294142Y-17708714D01*
X124258428Y-17780142D01*
X124258428Y-17887285D01*
X124294142Y-17958714D01*
X124329857Y-17994428D01*
X124401285Y-18030142D01*
X124687000Y-18030142D01*
X123937000Y-18387285D02*
X123937000Y-17637285D01*
X123437000Y-17637285D02*
X123294142Y-17637285D01*
X123222714Y-17673000D01*
X123151285Y-17744428D01*
X123115571Y-17887285D01*
X123115571Y-18137285D01*
X123151285Y-18280142D01*
X123222714Y-18351571D01*
X123294142Y-18387285D01*
X123437000Y-18387285D01*
X123508428Y-18351571D01*
X123579857Y-18280142D01*
X123615571Y-18137285D01*
X123615571Y-17887285D01*
X123579857Y-17744428D01*
X123508428Y-17673000D01*
X123437000Y-17637285D01*
X122829857Y-17708714D02*
X122794142Y-17673000D01*
X122722714Y-17637285D01*
X122544142Y-17637285D01*
X122472714Y-17673000D01*
X122437000Y-17708714D01*
X122401285Y-17780142D01*
X122401285Y-17851571D01*
X122437000Y-17958714D01*
X122865571Y-18387285D01*
X122401285Y-18387285D01*
X120892857Y-18351571D02*
X120785714Y-18387285D01*
X120607142Y-18387285D01*
X120535714Y-18351571D01*
X120500000Y-18315857D01*
X120464285Y-18244428D01*
X120464285Y-18173000D01*
X120500000Y-18101571D01*
X120535714Y-18065857D01*
X120607142Y-18030142D01*
X120750000Y-17994428D01*
X120821428Y-17958714D01*
X120857142Y-17923000D01*
X120892857Y-17851571D01*
X120892857Y-17780142D01*
X120857142Y-17708714D01*
X120821428Y-17673000D01*
X120750000Y-17637285D01*
X120571428Y-17637285D01*
X120464285Y-17673000D01*
X119714285Y-18315857D02*
X119750000Y-18351571D01*
X119857142Y-18387285D01*
X119928571Y-18387285D01*
X120035714Y-18351571D01*
X120107142Y-18280142D01*
X120142857Y-18208714D01*
X120178571Y-18065857D01*
X120178571Y-17958714D01*
X120142857Y-17815857D01*
X120107142Y-17744428D01*
X120035714Y-17673000D01*
X119928571Y-17637285D01*
X119857142Y-17637285D01*
X119750000Y-17673000D01*
X119714285Y-17708714D01*
X119035714Y-18387285D02*
X119392857Y-18387285D01*
X119392857Y-17637285D01*
X118031428Y-17673000D02*
X118102857Y-17637285D01*
X118210000Y-17637285D01*
X118317142Y-17673000D01*
X118388571Y-17744428D01*
X118424285Y-17815857D01*
X118460000Y-17958714D01*
X118460000Y-18065857D01*
X118424285Y-18208714D01*
X118388571Y-18280142D01*
X118317142Y-18351571D01*
X118210000Y-18387285D01*
X118138571Y-18387285D01*
X118031428Y-18351571D01*
X117995714Y-18315857D01*
X117995714Y-18065857D01*
X118138571Y-18065857D01*
X117674285Y-18387285D02*
X117674285Y-17637285D01*
X117245714Y-18387285D01*
X117245714Y-17637285D01*
X116888571Y-18387285D02*
X116888571Y-17637285D01*
X116710000Y-17637285D01*
X116602857Y-17673000D01*
X116531428Y-17744428D01*
X116495714Y-17815857D01*
X116460000Y-17958714D01*
X116460000Y-18065857D01*
X116495714Y-18208714D01*
X116531428Y-18280142D01*
X116602857Y-18351571D01*
X116710000Y-18387285D01*
X116888571Y-18387285D01*
X125044142Y-11831000D02*
X125115571Y-11795285D01*
X125222714Y-11795285D01*
X125329857Y-11831000D01*
X125401285Y-11902428D01*
X125437000Y-11973857D01*
X125472714Y-12116714D01*
X125472714Y-12223857D01*
X125437000Y-12366714D01*
X125401285Y-12438142D01*
X125329857Y-12509571D01*
X125222714Y-12545285D01*
X125151285Y-12545285D01*
X125044142Y-12509571D01*
X125008428Y-12473857D01*
X125008428Y-12223857D01*
X125151285Y-12223857D01*
X124687000Y-12545285D02*
X124687000Y-11795285D01*
X124401285Y-11795285D01*
X124329857Y-11831000D01*
X124294142Y-11866714D01*
X124258428Y-11938142D01*
X124258428Y-12045285D01*
X124294142Y-12116714D01*
X124329857Y-12152428D01*
X124401285Y-12188142D01*
X124687000Y-12188142D01*
X123937000Y-12545285D02*
X123937000Y-11795285D01*
X123437000Y-11795285D02*
X123294142Y-11795285D01*
X123222714Y-11831000D01*
X123151285Y-11902428D01*
X123115571Y-12045285D01*
X123115571Y-12295285D01*
X123151285Y-12438142D01*
X123222714Y-12509571D01*
X123294142Y-12545285D01*
X123437000Y-12545285D01*
X123508428Y-12509571D01*
X123579857Y-12438142D01*
X123615571Y-12295285D01*
X123615571Y-12045285D01*
X123579857Y-11902428D01*
X123508428Y-11831000D01*
X123437000Y-11795285D01*
X122401285Y-12545285D02*
X122829857Y-12545285D01*
X122615571Y-12545285D02*
X122615571Y-11795285D01*
X122687000Y-11902428D01*
X122758428Y-11973857D01*
X122829857Y-12009571D01*
X120910714Y-12509571D02*
X120803571Y-12545285D01*
X120625000Y-12545285D01*
X120553571Y-12509571D01*
X120517857Y-12473857D01*
X120482142Y-12402428D01*
X120482142Y-12331000D01*
X120517857Y-12259571D01*
X120553571Y-12223857D01*
X120625000Y-12188142D01*
X120767857Y-12152428D01*
X120839285Y-12116714D01*
X120875000Y-12081000D01*
X120910714Y-12009571D01*
X120910714Y-11938142D01*
X120875000Y-11866714D01*
X120839285Y-11831000D01*
X120767857Y-11795285D01*
X120589285Y-11795285D01*
X120482142Y-11831000D01*
X120160714Y-12545285D02*
X120160714Y-11795285D01*
X119982142Y-11795285D01*
X119875000Y-11831000D01*
X119803571Y-11902428D01*
X119767857Y-11973857D01*
X119732142Y-12116714D01*
X119732142Y-12223857D01*
X119767857Y-12366714D01*
X119803571Y-12438142D01*
X119875000Y-12509571D01*
X119982142Y-12545285D01*
X120160714Y-12545285D01*
X119446428Y-12331000D02*
X119089285Y-12331000D01*
X119517857Y-12545285D02*
X119267857Y-11795285D01*
X119017857Y-12545285D01*
X118460000Y-11795285D02*
X118210000Y-12545285D01*
X117960000Y-11795285D01*
X117281428Y-12473857D02*
X117317142Y-12509571D01*
X117424285Y-12545285D01*
X117495714Y-12545285D01*
X117602857Y-12509571D01*
X117674285Y-12438142D01*
X117710000Y-12366714D01*
X117745714Y-12223857D01*
X117745714Y-12116714D01*
X117710000Y-11973857D01*
X117674285Y-11902428D01*
X117602857Y-11831000D01*
X117495714Y-11795285D01*
X117424285Y-11795285D01*
X117317142Y-11831000D01*
X117281428Y-11866714D01*
X116531428Y-12473857D02*
X116567142Y-12509571D01*
X116674285Y-12545285D01*
X116745714Y-12545285D01*
X116852857Y-12509571D01*
X116924285Y-12438142D01*
X116960000Y-12366714D01*
X116995714Y-12223857D01*
X116995714Y-12116714D01*
X116960000Y-11973857D01*
X116924285Y-11902428D01*
X116852857Y-11831000D01*
X116745714Y-11795285D01*
X116674285Y-11795285D01*
X116567142Y-11831000D01*
X116531428Y-11866714D01*
D10*
G04 #@! TO.C,X2*
X46619047Y-8062761D02*
X45285714Y-10062761D01*
X45285714Y-8062761D02*
X46619047Y-10062761D01*
X44619047Y-8253238D02*
X44523809Y-8158000D01*
X44333333Y-8062761D01*
X43857142Y-8062761D01*
X43666666Y-8158000D01*
X43571428Y-8253238D01*
X43476190Y-8443714D01*
X43476190Y-8634190D01*
X43571428Y-8919904D01*
X44714285Y-10062761D01*
X43476190Y-10062761D01*
D11*
X45044142Y-17673000D02*
X45115571Y-17637285D01*
X45222714Y-17637285D01*
X45329857Y-17673000D01*
X45401285Y-17744428D01*
X45437000Y-17815857D01*
X45472714Y-17958714D01*
X45472714Y-18065857D01*
X45437000Y-18208714D01*
X45401285Y-18280142D01*
X45329857Y-18351571D01*
X45222714Y-18387285D01*
X45151285Y-18387285D01*
X45044142Y-18351571D01*
X45008428Y-18315857D01*
X45008428Y-18065857D01*
X45151285Y-18065857D01*
X44687000Y-18387285D02*
X44687000Y-17637285D01*
X44401285Y-17637285D01*
X44329857Y-17673000D01*
X44294142Y-17708714D01*
X44258428Y-17780142D01*
X44258428Y-17887285D01*
X44294142Y-17958714D01*
X44329857Y-17994428D01*
X44401285Y-18030142D01*
X44687000Y-18030142D01*
X43937000Y-18387285D02*
X43937000Y-17637285D01*
X43437000Y-17637285D02*
X43294142Y-17637285D01*
X43222714Y-17673000D01*
X43151285Y-17744428D01*
X43115571Y-17887285D01*
X43115571Y-18137285D01*
X43151285Y-18280142D01*
X43222714Y-18351571D01*
X43294142Y-18387285D01*
X43437000Y-18387285D01*
X43508428Y-18351571D01*
X43579857Y-18280142D01*
X43615571Y-18137285D01*
X43615571Y-17887285D01*
X43579857Y-17744428D01*
X43508428Y-17673000D01*
X43437000Y-17637285D01*
X42829857Y-17708714D02*
X42794142Y-17673000D01*
X42722714Y-17637285D01*
X42544142Y-17637285D01*
X42472714Y-17673000D01*
X42437000Y-17708714D01*
X42401285Y-17780142D01*
X42401285Y-17851571D01*
X42437000Y-17958714D01*
X42865571Y-18387285D01*
X42401285Y-18387285D01*
X40892857Y-18351571D02*
X40785714Y-18387285D01*
X40607142Y-18387285D01*
X40535714Y-18351571D01*
X40500000Y-18315857D01*
X40464285Y-18244428D01*
X40464285Y-18173000D01*
X40500000Y-18101571D01*
X40535714Y-18065857D01*
X40607142Y-18030142D01*
X40750000Y-17994428D01*
X40821428Y-17958714D01*
X40857142Y-17923000D01*
X40892857Y-17851571D01*
X40892857Y-17780142D01*
X40857142Y-17708714D01*
X40821428Y-17673000D01*
X40750000Y-17637285D01*
X40571428Y-17637285D01*
X40464285Y-17673000D01*
X39714285Y-18315857D02*
X39750000Y-18351571D01*
X39857142Y-18387285D01*
X39928571Y-18387285D01*
X40035714Y-18351571D01*
X40107142Y-18280142D01*
X40142857Y-18208714D01*
X40178571Y-18065857D01*
X40178571Y-17958714D01*
X40142857Y-17815857D01*
X40107142Y-17744428D01*
X40035714Y-17673000D01*
X39928571Y-17637285D01*
X39857142Y-17637285D01*
X39750000Y-17673000D01*
X39714285Y-17708714D01*
X39035714Y-18387285D02*
X39392857Y-18387285D01*
X39392857Y-17637285D01*
X38031428Y-17673000D02*
X38102857Y-17637285D01*
X38210000Y-17637285D01*
X38317142Y-17673000D01*
X38388571Y-17744428D01*
X38424285Y-17815857D01*
X38460000Y-17958714D01*
X38460000Y-18065857D01*
X38424285Y-18208714D01*
X38388571Y-18280142D01*
X38317142Y-18351571D01*
X38210000Y-18387285D01*
X38138571Y-18387285D01*
X38031428Y-18351571D01*
X37995714Y-18315857D01*
X37995714Y-18065857D01*
X38138571Y-18065857D01*
X37674285Y-18387285D02*
X37674285Y-17637285D01*
X37245714Y-18387285D01*
X37245714Y-17637285D01*
X36888571Y-18387285D02*
X36888571Y-17637285D01*
X36710000Y-17637285D01*
X36602857Y-17673000D01*
X36531428Y-17744428D01*
X36495714Y-17815857D01*
X36460000Y-17958714D01*
X36460000Y-18065857D01*
X36495714Y-18208714D01*
X36531428Y-18280142D01*
X36602857Y-18351571D01*
X36710000Y-18387285D01*
X36888571Y-18387285D01*
X45044142Y-11831000D02*
X45115571Y-11795285D01*
X45222714Y-11795285D01*
X45329857Y-11831000D01*
X45401285Y-11902428D01*
X45437000Y-11973857D01*
X45472714Y-12116714D01*
X45472714Y-12223857D01*
X45437000Y-12366714D01*
X45401285Y-12438142D01*
X45329857Y-12509571D01*
X45222714Y-12545285D01*
X45151285Y-12545285D01*
X45044142Y-12509571D01*
X45008428Y-12473857D01*
X45008428Y-12223857D01*
X45151285Y-12223857D01*
X44687000Y-12545285D02*
X44687000Y-11795285D01*
X44401285Y-11795285D01*
X44329857Y-11831000D01*
X44294142Y-11866714D01*
X44258428Y-11938142D01*
X44258428Y-12045285D01*
X44294142Y-12116714D01*
X44329857Y-12152428D01*
X44401285Y-12188142D01*
X44687000Y-12188142D01*
X43937000Y-12545285D02*
X43937000Y-11795285D01*
X43437000Y-11795285D02*
X43294142Y-11795285D01*
X43222714Y-11831000D01*
X43151285Y-11902428D01*
X43115571Y-12045285D01*
X43115571Y-12295285D01*
X43151285Y-12438142D01*
X43222714Y-12509571D01*
X43294142Y-12545285D01*
X43437000Y-12545285D01*
X43508428Y-12509571D01*
X43579857Y-12438142D01*
X43615571Y-12295285D01*
X43615571Y-12045285D01*
X43579857Y-11902428D01*
X43508428Y-11831000D01*
X43437000Y-11795285D01*
X42401285Y-12545285D02*
X42829857Y-12545285D01*
X42615571Y-12545285D02*
X42615571Y-11795285D01*
X42687000Y-11902428D01*
X42758428Y-11973857D01*
X42829857Y-12009571D01*
X40910714Y-12509571D02*
X40803571Y-12545285D01*
X40625000Y-12545285D01*
X40553571Y-12509571D01*
X40517857Y-12473857D01*
X40482142Y-12402428D01*
X40482142Y-12331000D01*
X40517857Y-12259571D01*
X40553571Y-12223857D01*
X40625000Y-12188142D01*
X40767857Y-12152428D01*
X40839285Y-12116714D01*
X40875000Y-12081000D01*
X40910714Y-12009571D01*
X40910714Y-11938142D01*
X40875000Y-11866714D01*
X40839285Y-11831000D01*
X40767857Y-11795285D01*
X40589285Y-11795285D01*
X40482142Y-11831000D01*
X40160714Y-12545285D02*
X40160714Y-11795285D01*
X39982142Y-11795285D01*
X39875000Y-11831000D01*
X39803571Y-11902428D01*
X39767857Y-11973857D01*
X39732142Y-12116714D01*
X39732142Y-12223857D01*
X39767857Y-12366714D01*
X39803571Y-12438142D01*
X39875000Y-12509571D01*
X39982142Y-12545285D01*
X40160714Y-12545285D01*
X39446428Y-12331000D02*
X39089285Y-12331000D01*
X39517857Y-12545285D02*
X39267857Y-11795285D01*
X39017857Y-12545285D01*
X38460000Y-11795285D02*
X38210000Y-12545285D01*
X37960000Y-11795285D01*
X37281428Y-12473857D02*
X37317142Y-12509571D01*
X37424285Y-12545285D01*
X37495714Y-12545285D01*
X37602857Y-12509571D01*
X37674285Y-12438142D01*
X37710000Y-12366714D01*
X37745714Y-12223857D01*
X37745714Y-12116714D01*
X37710000Y-11973857D01*
X37674285Y-11902428D01*
X37602857Y-11831000D01*
X37495714Y-11795285D01*
X37424285Y-11795285D01*
X37317142Y-11831000D01*
X37281428Y-11866714D01*
X36531428Y-12473857D02*
X36567142Y-12509571D01*
X36674285Y-12545285D01*
X36745714Y-12545285D01*
X36852857Y-12509571D01*
X36924285Y-12438142D01*
X36960000Y-12366714D01*
X36995714Y-12223857D01*
X36995714Y-12116714D01*
X36960000Y-11973857D01*
X36924285Y-11902428D01*
X36852857Y-11831000D01*
X36745714Y-11795285D01*
X36674285Y-11795285D01*
X36567142Y-11831000D01*
X36531428Y-11866714D01*
D10*
G04 #@! TO.C,X4*
X201619047Y-8062761D02*
X200285714Y-10062761D01*
X200285714Y-8062761D02*
X201619047Y-10062761D01*
X198666666Y-8729428D02*
X198666666Y-10062761D01*
X199142857Y-7967523D02*
X199619047Y-9396095D01*
X198380952Y-9396095D01*
D11*
X205044142Y-17673000D02*
X205115571Y-17637285D01*
X205222714Y-17637285D01*
X205329857Y-17673000D01*
X205401285Y-17744428D01*
X205437000Y-17815857D01*
X205472714Y-17958714D01*
X205472714Y-18065857D01*
X205437000Y-18208714D01*
X205401285Y-18280142D01*
X205329857Y-18351571D01*
X205222714Y-18387285D01*
X205151285Y-18387285D01*
X205044142Y-18351571D01*
X205008428Y-18315857D01*
X205008428Y-18065857D01*
X205151285Y-18065857D01*
X204687000Y-18387285D02*
X204687000Y-17637285D01*
X204401285Y-17637285D01*
X204329857Y-17673000D01*
X204294142Y-17708714D01*
X204258428Y-17780142D01*
X204258428Y-17887285D01*
X204294142Y-17958714D01*
X204329857Y-17994428D01*
X204401285Y-18030142D01*
X204687000Y-18030142D01*
X203937000Y-18387285D02*
X203937000Y-17637285D01*
X203437000Y-17637285D02*
X203294142Y-17637285D01*
X203222714Y-17673000D01*
X203151285Y-17744428D01*
X203115571Y-17887285D01*
X203115571Y-18137285D01*
X203151285Y-18280142D01*
X203222714Y-18351571D01*
X203294142Y-18387285D01*
X203437000Y-18387285D01*
X203508428Y-18351571D01*
X203579857Y-18280142D01*
X203615571Y-18137285D01*
X203615571Y-17887285D01*
X203579857Y-17744428D01*
X203508428Y-17673000D01*
X203437000Y-17637285D01*
X202829857Y-17708714D02*
X202794142Y-17673000D01*
X202722714Y-17637285D01*
X202544142Y-17637285D01*
X202472714Y-17673000D01*
X202437000Y-17708714D01*
X202401285Y-17780142D01*
X202401285Y-17851571D01*
X202437000Y-17958714D01*
X202865571Y-18387285D01*
X202401285Y-18387285D01*
X200892857Y-18351571D02*
X200785714Y-18387285D01*
X200607142Y-18387285D01*
X200535714Y-18351571D01*
X200500000Y-18315857D01*
X200464285Y-18244428D01*
X200464285Y-18173000D01*
X200500000Y-18101571D01*
X200535714Y-18065857D01*
X200607142Y-18030142D01*
X200750000Y-17994428D01*
X200821428Y-17958714D01*
X200857142Y-17923000D01*
X200892857Y-17851571D01*
X200892857Y-17780142D01*
X200857142Y-17708714D01*
X200821428Y-17673000D01*
X200750000Y-17637285D01*
X200571428Y-17637285D01*
X200464285Y-17673000D01*
X199714285Y-18315857D02*
X199750000Y-18351571D01*
X199857142Y-18387285D01*
X199928571Y-18387285D01*
X200035714Y-18351571D01*
X200107142Y-18280142D01*
X200142857Y-18208714D01*
X200178571Y-18065857D01*
X200178571Y-17958714D01*
X200142857Y-17815857D01*
X200107142Y-17744428D01*
X200035714Y-17673000D01*
X199928571Y-17637285D01*
X199857142Y-17637285D01*
X199750000Y-17673000D01*
X199714285Y-17708714D01*
X199035714Y-18387285D02*
X199392857Y-18387285D01*
X199392857Y-17637285D01*
X198031428Y-17673000D02*
X198102857Y-17637285D01*
X198210000Y-17637285D01*
X198317142Y-17673000D01*
X198388571Y-17744428D01*
X198424285Y-17815857D01*
X198460000Y-17958714D01*
X198460000Y-18065857D01*
X198424285Y-18208714D01*
X198388571Y-18280142D01*
X198317142Y-18351571D01*
X198210000Y-18387285D01*
X198138571Y-18387285D01*
X198031428Y-18351571D01*
X197995714Y-18315857D01*
X197995714Y-18065857D01*
X198138571Y-18065857D01*
X197674285Y-18387285D02*
X197674285Y-17637285D01*
X197245714Y-18387285D01*
X197245714Y-17637285D01*
X196888571Y-18387285D02*
X196888571Y-17637285D01*
X196710000Y-17637285D01*
X196602857Y-17673000D01*
X196531428Y-17744428D01*
X196495714Y-17815857D01*
X196460000Y-17958714D01*
X196460000Y-18065857D01*
X196495714Y-18208714D01*
X196531428Y-18280142D01*
X196602857Y-18351571D01*
X196710000Y-18387285D01*
X196888571Y-18387285D01*
X205044142Y-11831000D02*
X205115571Y-11795285D01*
X205222714Y-11795285D01*
X205329857Y-11831000D01*
X205401285Y-11902428D01*
X205437000Y-11973857D01*
X205472714Y-12116714D01*
X205472714Y-12223857D01*
X205437000Y-12366714D01*
X205401285Y-12438142D01*
X205329857Y-12509571D01*
X205222714Y-12545285D01*
X205151285Y-12545285D01*
X205044142Y-12509571D01*
X205008428Y-12473857D01*
X205008428Y-12223857D01*
X205151285Y-12223857D01*
X204687000Y-12545285D02*
X204687000Y-11795285D01*
X204401285Y-11795285D01*
X204329857Y-11831000D01*
X204294142Y-11866714D01*
X204258428Y-11938142D01*
X204258428Y-12045285D01*
X204294142Y-12116714D01*
X204329857Y-12152428D01*
X204401285Y-12188142D01*
X204687000Y-12188142D01*
X203937000Y-12545285D02*
X203937000Y-11795285D01*
X203437000Y-11795285D02*
X203294142Y-11795285D01*
X203222714Y-11831000D01*
X203151285Y-11902428D01*
X203115571Y-12045285D01*
X203115571Y-12295285D01*
X203151285Y-12438142D01*
X203222714Y-12509571D01*
X203294142Y-12545285D01*
X203437000Y-12545285D01*
X203508428Y-12509571D01*
X203579857Y-12438142D01*
X203615571Y-12295285D01*
X203615571Y-12045285D01*
X203579857Y-11902428D01*
X203508428Y-11831000D01*
X203437000Y-11795285D01*
X202401285Y-12545285D02*
X202829857Y-12545285D01*
X202615571Y-12545285D02*
X202615571Y-11795285D01*
X202687000Y-11902428D01*
X202758428Y-11973857D01*
X202829857Y-12009571D01*
X200910714Y-12509571D02*
X200803571Y-12545285D01*
X200625000Y-12545285D01*
X200553571Y-12509571D01*
X200517857Y-12473857D01*
X200482142Y-12402428D01*
X200482142Y-12331000D01*
X200517857Y-12259571D01*
X200553571Y-12223857D01*
X200625000Y-12188142D01*
X200767857Y-12152428D01*
X200839285Y-12116714D01*
X200875000Y-12081000D01*
X200910714Y-12009571D01*
X200910714Y-11938142D01*
X200875000Y-11866714D01*
X200839285Y-11831000D01*
X200767857Y-11795285D01*
X200589285Y-11795285D01*
X200482142Y-11831000D01*
X200160714Y-12545285D02*
X200160714Y-11795285D01*
X199982142Y-11795285D01*
X199875000Y-11831000D01*
X199803571Y-11902428D01*
X199767857Y-11973857D01*
X199732142Y-12116714D01*
X199732142Y-12223857D01*
X199767857Y-12366714D01*
X199803571Y-12438142D01*
X199875000Y-12509571D01*
X199982142Y-12545285D01*
X200160714Y-12545285D01*
X199446428Y-12331000D02*
X199089285Y-12331000D01*
X199517857Y-12545285D02*
X199267857Y-11795285D01*
X199017857Y-12545285D01*
X198460000Y-11795285D02*
X198210000Y-12545285D01*
X197960000Y-11795285D01*
X197281428Y-12473857D02*
X197317142Y-12509571D01*
X197424285Y-12545285D01*
X197495714Y-12545285D01*
X197602857Y-12509571D01*
X197674285Y-12438142D01*
X197710000Y-12366714D01*
X197745714Y-12223857D01*
X197745714Y-12116714D01*
X197710000Y-11973857D01*
X197674285Y-11902428D01*
X197602857Y-11831000D01*
X197495714Y-11795285D01*
X197424285Y-11795285D01*
X197317142Y-11831000D01*
X197281428Y-11866714D01*
X196531428Y-12473857D02*
X196567142Y-12509571D01*
X196674285Y-12545285D01*
X196745714Y-12545285D01*
X196852857Y-12509571D01*
X196924285Y-12438142D01*
X196960000Y-12366714D01*
X196995714Y-12223857D01*
X196995714Y-12116714D01*
X196960000Y-11973857D01*
X196924285Y-11902428D01*
X196852857Y-11831000D01*
X196745714Y-11795285D01*
X196674285Y-11795285D01*
X196567142Y-11831000D01*
X196531428Y-11866714D01*
D10*
G04 #@! TO.C,C16*
X152935714Y-8089285D02*
X153030952Y-8184523D01*
X153316666Y-8279761D01*
X153507142Y-8279761D01*
X153792857Y-8184523D01*
X153983333Y-7994047D01*
X154078571Y-7803571D01*
X154173809Y-7422619D01*
X154173809Y-7136904D01*
X154078571Y-6755952D01*
X153983333Y-6565476D01*
X153792857Y-6375000D01*
X153507142Y-6279761D01*
X153316666Y-6279761D01*
X153030952Y-6375000D01*
X152935714Y-6470238D01*
X151030952Y-8279761D02*
X152173809Y-8279761D01*
X151602380Y-8279761D02*
X151602380Y-6279761D01*
X151792857Y-6565476D01*
X151983333Y-6755952D01*
X152173809Y-6851190D01*
X149316666Y-6279761D02*
X149697619Y-6279761D01*
X149888095Y-6375000D01*
X149983333Y-6470238D01*
X150173809Y-6755952D01*
X150269047Y-7136904D01*
X150269047Y-7898809D01*
X150173809Y-8089285D01*
X150078571Y-8184523D01*
X149888095Y-8279761D01*
X149507142Y-8279761D01*
X149316666Y-8184523D01*
X149221428Y-8089285D01*
X149126190Y-7898809D01*
X149126190Y-7422619D01*
X149221428Y-7232142D01*
X149316666Y-7136904D01*
X149507142Y-7041666D01*
X149888095Y-7041666D01*
X150078571Y-7136904D01*
X150173809Y-7232142D01*
X150269047Y-7422619D01*
G04 #@! TO.C,X1*
X148469047Y-13879761D02*
X147135714Y-15879761D01*
X147135714Y-13879761D02*
X148469047Y-15879761D01*
X145326190Y-15879761D02*
X146469047Y-15879761D01*
X145897619Y-15879761D02*
X145897619Y-13879761D01*
X146088095Y-14165476D01*
X146278571Y-14355952D01*
X146469047Y-14451190D01*
G04 #@! TO.C,U2*
X259523809Y-10904761D02*
X259523809Y-12523809D01*
X259428571Y-12714285D01*
X259333333Y-12809523D01*
X259142857Y-12904761D01*
X258761904Y-12904761D01*
X258571428Y-12809523D01*
X258476190Y-12714285D01*
X258380952Y-12523809D01*
X258380952Y-10904761D01*
X257523809Y-11095238D02*
X257428571Y-11000000D01*
X257238095Y-10904761D01*
X256761904Y-10904761D01*
X256571428Y-11000000D01*
X256476190Y-11095238D01*
X256380952Y-11285714D01*
X256380952Y-11476190D01*
X256476190Y-11761904D01*
X257619047Y-12904761D01*
X256380952Y-12904761D01*
G04 #@! TO.C,R7*
X261904761Y-20416666D02*
X260952380Y-19750000D01*
X261904761Y-19273809D02*
X259904761Y-19273809D01*
X259904761Y-20035714D01*
X260000000Y-20226190D01*
X260095238Y-20321428D01*
X260285714Y-20416666D01*
X260571428Y-20416666D01*
X260761904Y-20321428D01*
X260857142Y-20226190D01*
X260952380Y-20035714D01*
X260952380Y-19273809D01*
X259904761Y-21083333D02*
X259904761Y-22416666D01*
X261904761Y-21559523D01*
G04 #@! TO.C,R6*
X257904761Y-20416666D02*
X256952380Y-19750000D01*
X257904761Y-19273809D02*
X255904761Y-19273809D01*
X255904761Y-20035714D01*
X256000000Y-20226190D01*
X256095238Y-20321428D01*
X256285714Y-20416666D01*
X256571428Y-20416666D01*
X256761904Y-20321428D01*
X256857142Y-20226190D01*
X256952380Y-20035714D01*
X256952380Y-19273809D01*
X255904761Y-22130952D02*
X255904761Y-21750000D01*
X256000000Y-21559523D01*
X256095238Y-21464285D01*
X256380952Y-21273809D01*
X256761904Y-21178571D01*
X257523809Y-21178571D01*
X257714285Y-21273809D01*
X257809523Y-21369047D01*
X257904761Y-21559523D01*
X257904761Y-21940476D01*
X257809523Y-22130952D01*
X257714285Y-22226190D01*
X257523809Y-22321428D01*
X257047619Y-22321428D01*
X256857142Y-22226190D01*
X256761904Y-22130952D01*
X256666666Y-21940476D01*
X256666666Y-21559523D01*
X256761904Y-21369047D01*
X256857142Y-21273809D01*
X257047619Y-21178571D01*
G04 #@! TO.C,R5*
X37333333Y-23154761D02*
X38000000Y-22202380D01*
X38476190Y-23154761D02*
X38476190Y-21154761D01*
X37714285Y-21154761D01*
X37523809Y-21250000D01*
X37428571Y-21345238D01*
X37333333Y-21535714D01*
X37333333Y-21821428D01*
X37428571Y-22011904D01*
X37523809Y-22107142D01*
X37714285Y-22202380D01*
X38476190Y-22202380D01*
X35523809Y-21154761D02*
X36476190Y-21154761D01*
X36571428Y-22107142D01*
X36476190Y-22011904D01*
X36285714Y-21916666D01*
X35809523Y-21916666D01*
X35619047Y-22011904D01*
X35523809Y-22107142D01*
X35428571Y-22297619D01*
X35428571Y-22773809D01*
X35523809Y-22964285D01*
X35619047Y-23059523D01*
X35809523Y-23154761D01*
X36285714Y-23154761D01*
X36476190Y-23059523D01*
X36571428Y-22964285D01*
G04 #@! TO.C,R4*
X37333333Y-8404761D02*
X38000000Y-7452380D01*
X38476190Y-8404761D02*
X38476190Y-6404761D01*
X37714285Y-6404761D01*
X37523809Y-6500000D01*
X37428571Y-6595238D01*
X37333333Y-6785714D01*
X37333333Y-7071428D01*
X37428571Y-7261904D01*
X37523809Y-7357142D01*
X37714285Y-7452380D01*
X38476190Y-7452380D01*
X35619047Y-7071428D02*
X35619047Y-8404761D01*
X36095238Y-6309523D02*
X36571428Y-7738095D01*
X35333333Y-7738095D01*
G04 #@! TO.C,R3*
X172154761Y-18441666D02*
X171202380Y-17775000D01*
X172154761Y-17298809D02*
X170154761Y-17298809D01*
X170154761Y-18060714D01*
X170250000Y-18251190D01*
X170345238Y-18346428D01*
X170535714Y-18441666D01*
X170821428Y-18441666D01*
X171011904Y-18346428D01*
X171107142Y-18251190D01*
X171202380Y-18060714D01*
X171202380Y-17298809D01*
X170154761Y-19108333D02*
X170154761Y-20346428D01*
X170916666Y-19679761D01*
X170916666Y-19965476D01*
X171011904Y-20155952D01*
X171107142Y-20251190D01*
X171297619Y-20346428D01*
X171773809Y-20346428D01*
X171964285Y-20251190D01*
X172059523Y-20155952D01*
X172154761Y-19965476D01*
X172154761Y-19394047D01*
X172059523Y-19203571D01*
X171964285Y-19108333D01*
G04 #@! TO.C,R2*
X186217261Y-12479166D02*
X185264880Y-11812500D01*
X186217261Y-11336309D02*
X184217261Y-11336309D01*
X184217261Y-12098214D01*
X184312500Y-12288690D01*
X184407738Y-12383928D01*
X184598214Y-12479166D01*
X184883928Y-12479166D01*
X185074404Y-12383928D01*
X185169642Y-12288690D01*
X185264880Y-12098214D01*
X185264880Y-11336309D01*
X184407738Y-13241071D02*
X184312500Y-13336309D01*
X184217261Y-13526785D01*
X184217261Y-14002976D01*
X184312500Y-14193452D01*
X184407738Y-14288690D01*
X184598214Y-14383928D01*
X184788690Y-14383928D01*
X185074404Y-14288690D01*
X186217261Y-13145833D01*
X186217261Y-14383928D01*
G04 #@! TO.C,R1*
X35404761Y-14666666D02*
X34452380Y-14000000D01*
X35404761Y-13523809D02*
X33404761Y-13523809D01*
X33404761Y-14285714D01*
X33500000Y-14476190D01*
X33595238Y-14571428D01*
X33785714Y-14666666D01*
X34071428Y-14666666D01*
X34261904Y-14571428D01*
X34357142Y-14476190D01*
X34452380Y-14285714D01*
X34452380Y-13523809D01*
X35404761Y-16571428D02*
X35404761Y-15428571D01*
X35404761Y-16000000D02*
X33404761Y-16000000D01*
X33690476Y-15809523D01*
X33880952Y-15619047D01*
X33976190Y-15428571D01*
G04 #@! TO.C,L1*
X252404761Y-18166666D02*
X252404761Y-17214285D01*
X250404761Y-17214285D01*
X252404761Y-19880952D02*
X252404761Y-18738095D01*
X252404761Y-19309523D02*
X250404761Y-19309523D01*
X250690476Y-19119047D01*
X250880952Y-18928571D01*
X250976190Y-18738095D01*
G04 #@! TO.C,J2*
X20764761Y-14308333D02*
X22193333Y-14308333D01*
X22479047Y-14213095D01*
X22669523Y-14022619D01*
X22764761Y-13736904D01*
X22764761Y-13546428D01*
X20955238Y-15165476D02*
X20860000Y-15260714D01*
X20764761Y-15451190D01*
X20764761Y-15927380D01*
X20860000Y-16117857D01*
X20955238Y-16213095D01*
X21145714Y-16308333D01*
X21336190Y-16308333D01*
X21621904Y-16213095D01*
X22764761Y-15070238D01*
X22764761Y-16308333D01*
G04 #@! TO.C,J1*
X303904761Y-14333333D02*
X305333333Y-14333333D01*
X305619047Y-14238095D01*
X305809523Y-14047619D01*
X305904761Y-13761904D01*
X305904761Y-13571428D01*
X305904761Y-16333333D02*
X305904761Y-15190476D01*
X305904761Y-15761904D02*
X303904761Y-15761904D01*
X304190476Y-15571428D01*
X304380952Y-15380952D01*
X304476190Y-15190476D01*
G04 #@! TO.C,C14*
X264964285Y-13714285D02*
X265059523Y-13619047D01*
X265154761Y-13333333D01*
X265154761Y-13142857D01*
X265059523Y-12857142D01*
X264869047Y-12666666D01*
X264678571Y-12571428D01*
X264297619Y-12476190D01*
X264011904Y-12476190D01*
X263630952Y-12571428D01*
X263440476Y-12666666D01*
X263250000Y-12857142D01*
X263154761Y-13142857D01*
X263154761Y-13333333D01*
X263250000Y-13619047D01*
X263345238Y-13714285D01*
X265154761Y-15619047D02*
X265154761Y-14476190D01*
X265154761Y-15047619D02*
X263154761Y-15047619D01*
X263440476Y-14857142D01*
X263630952Y-14666666D01*
X263726190Y-14476190D01*
X263821428Y-17333333D02*
X265154761Y-17333333D01*
X263059523Y-16857142D02*
X264488095Y-16380952D01*
X264488095Y-17619047D01*
G04 #@! TO.C,C13*
X245214285Y-13714285D02*
X245309523Y-13619047D01*
X245404761Y-13333333D01*
X245404761Y-13142857D01*
X245309523Y-12857142D01*
X245119047Y-12666666D01*
X244928571Y-12571428D01*
X244547619Y-12476190D01*
X244261904Y-12476190D01*
X243880952Y-12571428D01*
X243690476Y-12666666D01*
X243500000Y-12857142D01*
X243404761Y-13142857D01*
X243404761Y-13333333D01*
X243500000Y-13619047D01*
X243595238Y-13714285D01*
X245404761Y-15619047D02*
X245404761Y-14476190D01*
X245404761Y-15047619D02*
X243404761Y-15047619D01*
X243690476Y-14857142D01*
X243880952Y-14666666D01*
X243976190Y-14476190D01*
X243404761Y-16285714D02*
X243404761Y-17523809D01*
X244166666Y-16857142D01*
X244166666Y-17142857D01*
X244261904Y-17333333D01*
X244357142Y-17428571D01*
X244547619Y-17523809D01*
X245023809Y-17523809D01*
X245214285Y-17428571D01*
X245309523Y-17333333D01*
X245404761Y-17142857D01*
X245404761Y-16571428D01*
X245309523Y-16380952D01*
X245214285Y-16285714D01*
G04 #@! TO.C,C12*
X174335714Y-23689285D02*
X174430952Y-23784523D01*
X174716666Y-23879761D01*
X174907142Y-23879761D01*
X175192857Y-23784523D01*
X175383333Y-23594047D01*
X175478571Y-23403571D01*
X175573809Y-23022619D01*
X175573809Y-22736904D01*
X175478571Y-22355952D01*
X175383333Y-22165476D01*
X175192857Y-21975000D01*
X174907142Y-21879761D01*
X174716666Y-21879761D01*
X174430952Y-21975000D01*
X174335714Y-22070238D01*
X172430952Y-23879761D02*
X173573809Y-23879761D01*
X173002380Y-23879761D02*
X173002380Y-21879761D01*
X173192857Y-22165476D01*
X173383333Y-22355952D01*
X173573809Y-22451190D01*
X171669047Y-22070238D02*
X171573809Y-21975000D01*
X171383333Y-21879761D01*
X170907142Y-21879761D01*
X170716666Y-21975000D01*
X170621428Y-22070238D01*
X170526190Y-22260714D01*
X170526190Y-22451190D01*
X170621428Y-22736904D01*
X171764285Y-23879761D01*
X170526190Y-23879761D01*
G04 #@! TO.C,C11*
X170535714Y-9964285D02*
X170630952Y-10059523D01*
X170916666Y-10154761D01*
X171107142Y-10154761D01*
X171392857Y-10059523D01*
X171583333Y-9869047D01*
X171678571Y-9678571D01*
X171773809Y-9297619D01*
X171773809Y-9011904D01*
X171678571Y-8630952D01*
X171583333Y-8440476D01*
X171392857Y-8250000D01*
X171107142Y-8154761D01*
X170916666Y-8154761D01*
X170630952Y-8250000D01*
X170535714Y-8345238D01*
X168630952Y-10154761D02*
X169773809Y-10154761D01*
X169202380Y-10154761D02*
X169202380Y-8154761D01*
X169392857Y-8440476D01*
X169583333Y-8630952D01*
X169773809Y-8726190D01*
X166726190Y-10154761D02*
X167869047Y-10154761D01*
X167297619Y-10154761D02*
X167297619Y-8154761D01*
X167488095Y-8440476D01*
X167678571Y-8630952D01*
X167869047Y-8726190D01*
G04 #@! TO.C,C10*
X147785714Y-20214285D02*
X147880952Y-20309523D01*
X148166666Y-20404761D01*
X148357142Y-20404761D01*
X148642857Y-20309523D01*
X148833333Y-20119047D01*
X148928571Y-19928571D01*
X149023809Y-19547619D01*
X149023809Y-19261904D01*
X148928571Y-18880952D01*
X148833333Y-18690476D01*
X148642857Y-18500000D01*
X148357142Y-18404761D01*
X148166666Y-18404761D01*
X147880952Y-18500000D01*
X147785714Y-18595238D01*
X145880952Y-20404761D02*
X147023809Y-20404761D01*
X146452380Y-20404761D02*
X146452380Y-18404761D01*
X146642857Y-18690476D01*
X146833333Y-18880952D01*
X147023809Y-18976190D01*
X144642857Y-18404761D02*
X144452380Y-18404761D01*
X144261904Y-18500000D01*
X144166666Y-18595238D01*
X144071428Y-18785714D01*
X143976190Y-19166666D01*
X143976190Y-19642857D01*
X144071428Y-20023809D01*
X144166666Y-20214285D01*
X144261904Y-20309523D01*
X144452380Y-20404761D01*
X144642857Y-20404761D01*
X144833333Y-20309523D01*
X144928571Y-20214285D01*
X145023809Y-20023809D01*
X145119047Y-19642857D01*
X145119047Y-19166666D01*
X145023809Y-18785714D01*
X144928571Y-18595238D01*
X144833333Y-18500000D01*
X144642857Y-18404761D01*
G04 #@! TO.C,C9*
X162583333Y-26289285D02*
X162678571Y-26384523D01*
X162964285Y-26479761D01*
X163154761Y-26479761D01*
X163440476Y-26384523D01*
X163630952Y-26194047D01*
X163726190Y-26003571D01*
X163821428Y-25622619D01*
X163821428Y-25336904D01*
X163726190Y-24955952D01*
X163630952Y-24765476D01*
X163440476Y-24575000D01*
X163154761Y-24479761D01*
X162964285Y-24479761D01*
X162678571Y-24575000D01*
X162583333Y-24670238D01*
X161630952Y-26479761D02*
X161250000Y-26479761D01*
X161059523Y-26384523D01*
X160964285Y-26289285D01*
X160773809Y-26003571D01*
X160678571Y-25622619D01*
X160678571Y-24860714D01*
X160773809Y-24670238D01*
X160869047Y-24575000D01*
X161059523Y-24479761D01*
X161440476Y-24479761D01*
X161630952Y-24575000D01*
X161726190Y-24670238D01*
X161821428Y-24860714D01*
X161821428Y-25336904D01*
X161726190Y-25527380D01*
X161630952Y-25622619D01*
X161440476Y-25717857D01*
X161059523Y-25717857D01*
X160869047Y-25622619D01*
X160773809Y-25527380D01*
X160678571Y-25336904D01*
G04 #@! TO.C,C8*
X26413333Y-13464285D02*
X26508571Y-13559523D01*
X26794285Y-13654761D01*
X26984761Y-13654761D01*
X27270476Y-13559523D01*
X27460952Y-13369047D01*
X27556190Y-13178571D01*
X27651428Y-12797619D01*
X27651428Y-12511904D01*
X27556190Y-12130952D01*
X27460952Y-11940476D01*
X27270476Y-11750000D01*
X26984761Y-11654761D01*
X26794285Y-11654761D01*
X26508571Y-11750000D01*
X26413333Y-11845238D01*
X25270476Y-12511904D02*
X25460952Y-12416666D01*
X25556190Y-12321428D01*
X25651428Y-12130952D01*
X25651428Y-12035714D01*
X25556190Y-11845238D01*
X25460952Y-11750000D01*
X25270476Y-11654761D01*
X24889523Y-11654761D01*
X24699047Y-11750000D01*
X24603809Y-11845238D01*
X24508571Y-12035714D01*
X24508571Y-12130952D01*
X24603809Y-12321428D01*
X24699047Y-12416666D01*
X24889523Y-12511904D01*
X25270476Y-12511904D01*
X25460952Y-12607142D01*
X25556190Y-12702380D01*
X25651428Y-12892857D01*
X25651428Y-13273809D01*
X25556190Y-13464285D01*
X25460952Y-13559523D01*
X25270476Y-13654761D01*
X24889523Y-13654761D01*
X24699047Y-13559523D01*
X24603809Y-13464285D01*
X24508571Y-13273809D01*
X24508571Y-12892857D01*
X24603809Y-12702380D01*
X24699047Y-12607142D01*
X24889523Y-12511904D01*
G04 #@! TO.C,C6*
X271214285Y-14666666D02*
X271309523Y-14571428D01*
X271404761Y-14285714D01*
X271404761Y-14095238D01*
X271309523Y-13809523D01*
X271119047Y-13619047D01*
X270928571Y-13523809D01*
X270547619Y-13428571D01*
X270261904Y-13428571D01*
X269880952Y-13523809D01*
X269690476Y-13619047D01*
X269500000Y-13809523D01*
X269404761Y-14095238D01*
X269404761Y-14285714D01*
X269500000Y-14571428D01*
X269595238Y-14666666D01*
X269404761Y-16380952D02*
X269404761Y-16000000D01*
X269500000Y-15809523D01*
X269595238Y-15714285D01*
X269880952Y-15523809D01*
X270261904Y-15428571D01*
X271023809Y-15428571D01*
X271214285Y-15523809D01*
X271309523Y-15619047D01*
X271404761Y-15809523D01*
X271404761Y-16190476D01*
X271309523Y-16380952D01*
X271214285Y-16476190D01*
X271023809Y-16571428D01*
X270547619Y-16571428D01*
X270357142Y-16476190D01*
X270261904Y-16380952D01*
X270166666Y-16190476D01*
X270166666Y-15809523D01*
X270261904Y-15619047D01*
X270357142Y-15523809D01*
X270547619Y-15428571D01*
G04 #@! TO.C,C4*
X155583333Y-23889285D02*
X155678571Y-23984523D01*
X155964285Y-24079761D01*
X156154761Y-24079761D01*
X156440476Y-23984523D01*
X156630952Y-23794047D01*
X156726190Y-23603571D01*
X156821428Y-23222619D01*
X156821428Y-22936904D01*
X156726190Y-22555952D01*
X156630952Y-22365476D01*
X156440476Y-22175000D01*
X156154761Y-22079761D01*
X155964285Y-22079761D01*
X155678571Y-22175000D01*
X155583333Y-22270238D01*
X153869047Y-22746428D02*
X153869047Y-24079761D01*
X154345238Y-21984523D02*
X154821428Y-23413095D01*
X153583333Y-23413095D01*
G04 #@! TO.C,C3*
X171464285Y-14166666D02*
X171559523Y-14071428D01*
X171654761Y-13785714D01*
X171654761Y-13595238D01*
X171559523Y-13309523D01*
X171369047Y-13119047D01*
X171178571Y-13023809D01*
X170797619Y-12928571D01*
X170511904Y-12928571D01*
X170130952Y-13023809D01*
X169940476Y-13119047D01*
X169750000Y-13309523D01*
X169654761Y-13595238D01*
X169654761Y-13785714D01*
X169750000Y-14071428D01*
X169845238Y-14166666D01*
X169654761Y-14833333D02*
X169654761Y-16071428D01*
X170416666Y-15404761D01*
X170416666Y-15690476D01*
X170511904Y-15880952D01*
X170607142Y-15976190D01*
X170797619Y-16071428D01*
X171273809Y-16071428D01*
X171464285Y-15976190D01*
X171559523Y-15880952D01*
X171654761Y-15690476D01*
X171654761Y-15119047D01*
X171559523Y-14928571D01*
X171464285Y-14833333D01*
G04 #@! TO.C,C2*
X143833333Y-17714285D02*
X143928571Y-17809523D01*
X144214285Y-17904761D01*
X144404761Y-17904761D01*
X144690476Y-17809523D01*
X144880952Y-17619047D01*
X144976190Y-17428571D01*
X145071428Y-17047619D01*
X145071428Y-16761904D01*
X144976190Y-16380952D01*
X144880952Y-16190476D01*
X144690476Y-16000000D01*
X144404761Y-15904761D01*
X144214285Y-15904761D01*
X143928571Y-16000000D01*
X143833333Y-16095238D01*
X143071428Y-16095238D02*
X142976190Y-16000000D01*
X142785714Y-15904761D01*
X142309523Y-15904761D01*
X142119047Y-16000000D01*
X142023809Y-16095238D01*
X141928571Y-16285714D01*
X141928571Y-16476190D01*
X142023809Y-16761904D01*
X143166666Y-17904761D01*
X141928571Y-17904761D01*
G04 #@! TO.C,C1*
X143833333Y-13714285D02*
X143928571Y-13809523D01*
X144214285Y-13904761D01*
X144404761Y-13904761D01*
X144690476Y-13809523D01*
X144880952Y-13619047D01*
X144976190Y-13428571D01*
X145071428Y-13047619D01*
X145071428Y-12761904D01*
X144976190Y-12380952D01*
X144880952Y-12190476D01*
X144690476Y-12000000D01*
X144404761Y-11904761D01*
X144214285Y-11904761D01*
X143928571Y-12000000D01*
X143833333Y-12095238D01*
X141928571Y-13904761D02*
X143071428Y-13904761D01*
X142500000Y-13904761D02*
X142500000Y-11904761D01*
X142690476Y-12190476D01*
X142880952Y-12380952D01*
X143071428Y-12476190D01*
D11*
G04 #@! TO.C,U1*
X165175000Y-20175000D02*
X164600000Y-20175000D01*
X165175000Y-9825000D02*
X165175000Y-10500000D01*
X164600000Y-20175000D02*
X164600000Y-21450000D01*
X154825000Y-9825000D02*
X154825000Y-10500000D01*
X165175000Y-20175000D02*
X165175000Y-19500000D01*
X165175000Y-9825000D02*
X164500000Y-9825000D01*
X154825000Y-9825000D02*
X155500000Y-9825000D01*
X154825000Y-20175000D02*
X154825000Y-19500000D01*
X154825000Y-20175000D02*
X155500000Y-20175000D01*
D12*
G04 #@! TO.C,Q3*
X188664240Y-10174500D02*
X189335760Y-10174500D01*
X190625600Y-10174500D02*
X190625600Y-11825500D01*
X190625600Y-11825500D02*
X189616740Y-11825500D01*
X187374400Y-11825500D02*
X187374400Y-10174500D01*
X188383260Y-11825500D02*
X187374400Y-11825500D01*
X186358400Y-9750000D02*
G75*
G03*
X186358400Y-9750000I-127000J0D01*
G01*
G04 #@! TO.C,Q2*
X112664240Y-10174500D02*
X113335760Y-10174500D01*
X114625600Y-10174500D02*
X114625600Y-11825500D01*
X114625600Y-11825500D02*
X113616740Y-11825500D01*
X111374400Y-11825500D02*
X111374400Y-10174500D01*
X112383260Y-11825500D02*
X111374400Y-11825500D01*
X110358400Y-9750000D02*
G75*
G03*
X110358400Y-9750000I-127000J0D01*
G01*
G04 #@! TO.C,Q1*
X32664240Y-10174500D02*
X33335760Y-10174500D01*
X34625600Y-10174500D02*
X34625600Y-11825500D01*
X34625600Y-11825500D02*
X33616740Y-11825500D01*
X31374400Y-11825500D02*
X31374400Y-10174500D01*
X32383260Y-11825500D02*
X31374400Y-11825500D01*
X30358400Y-9750000D02*
G75*
G03*
X30358400Y-9750000I-127000J0D01*
G01*
D13*
G04 #@! TO.C,R8*
X107741422Y-9290000D02*
X108258578Y-9290000D01*
X107741422Y-10710000D02*
X108258578Y-10710000D01*
G04 #@! TO.C,TP1*
X169950000Y-27000000D02*
G75*
G03*
X169950000Y-27000000I-950000J0D01*
G01*
G04 #@! TO.C,TDI1*
X174950000Y-11000000D02*
G75*
G03*
X174950000Y-11000000I-950000J0D01*
G01*
G04 #@! TO.C,TDO1*
X177490000Y-11000000D02*
G75*
G03*
X177490000Y-11000000I-950000J0D01*
G01*
G04 #@! TO.C,TMS1*
X180030000Y-11000000D02*
G75*
G03*
X180030000Y-11000000I-950000J0D01*
G01*
G04 #@! TO.C,TCK1*
X182570000Y-11000000D02*
G75*
G03*
X182570000Y-11000000I-950000J0D01*
G01*
G04 #@! TO.C,CON1*
X150385000Y-20970000D02*
X150385000Y-26170000D01*
X145245000Y-20970000D02*
X150385000Y-20970000D01*
X142645000Y-26170000D02*
X150385000Y-26170000D01*
X145245000Y-20970000D02*
X145245000Y-23570000D01*
X145245000Y-23570000D02*
X142645000Y-23570000D01*
X142645000Y-23570000D02*
X142645000Y-26170000D01*
X143975000Y-20970000D02*
X142645000Y-20970000D01*
X142645000Y-20970000D02*
X142645000Y-22300000D01*
D14*
G04 #@! TO.C,X5*
X277460000Y-10936000D02*
X272634000Y-10936000D01*
X287279640Y-10885200D02*
X282540000Y-10885200D01*
X272634000Y-10936000D02*
X272634000Y-19318000D01*
X272634000Y-19318000D02*
X287366000Y-19318000D01*
X287366000Y-19318000D02*
X287366000Y-10936000D01*
G04 #@! TO.C,X3*
X117460000Y-10936000D02*
X112634000Y-10936000D01*
X127279640Y-10885200D02*
X122540000Y-10885200D01*
X112634000Y-10936000D02*
X112634000Y-19318000D01*
X112634000Y-19318000D02*
X127366000Y-19318000D01*
X127366000Y-19318000D02*
X127366000Y-10936000D01*
G04 #@! TO.C,X2*
X37460000Y-10936000D02*
X32634000Y-10936000D01*
X47279640Y-10885200D02*
X42540000Y-10885200D01*
X32634000Y-10936000D02*
X32634000Y-19318000D01*
X32634000Y-19318000D02*
X47366000Y-19318000D01*
X47366000Y-19318000D02*
X47366000Y-10936000D01*
G04 #@! TO.C,X4*
X197460000Y-10936000D02*
X192634000Y-10936000D01*
X207279640Y-10885200D02*
X202540000Y-10885200D01*
X192634000Y-10936000D02*
X192634000Y-19318000D01*
X192634000Y-19318000D02*
X207366000Y-19318000D01*
X207366000Y-19318000D02*
X207366000Y-10936000D01*
D13*
G04 #@! TO.C,C16*
X151508578Y-10485000D02*
X150991422Y-10485000D01*
X151508578Y-9065000D02*
X150991422Y-9065000D01*
G04 #@! TO.C,X1*
X152800000Y-11950000D02*
X152800000Y-17700000D01*
X149200000Y-11950000D02*
X152800000Y-11950000D01*
X149200000Y-17700000D02*
X149200000Y-11950000D01*
G04 #@! TO.C,U2*
X257100000Y-13390000D02*
X258900000Y-13390000D01*
X258900000Y-16610000D02*
X256450000Y-16610000D01*
G04 #@! TO.C,R7*
X260741422Y-17290000D02*
X261258578Y-17290000D01*
X260741422Y-18710000D02*
X261258578Y-18710000D01*
G04 #@! TO.C,R6*
X256741422Y-17290000D02*
X257258578Y-17290000D01*
X256741422Y-18710000D02*
X257258578Y-18710000D01*
G04 #@! TO.C,R5*
X36741422Y-19290000D02*
X37258578Y-19290000D01*
X36741422Y-20710000D02*
X37258578Y-20710000D01*
G04 #@! TO.C,R4*
X36741422Y-9290000D02*
X37258578Y-9290000D01*
X36741422Y-10710000D02*
X37258578Y-10710000D01*
G04 #@! TO.C,R3*
X169210000Y-18241422D02*
X169210000Y-18758578D01*
X167790000Y-18241422D02*
X167790000Y-18758578D01*
G04 #@! TO.C,R2*
X184741422Y-9290000D02*
X185258578Y-9290000D01*
X184741422Y-10710000D02*
X185258578Y-10710000D01*
G04 #@! TO.C,R1*
X31290000Y-15258578D02*
X31290000Y-14741422D01*
X32710000Y-15258578D02*
X32710000Y-14741422D01*
D15*
G04 #@! TO.C,J2*
X18150000Y-7025000D02*
G75*
G03*
X18150000Y-7025000I-200000J0D01*
G01*
G04 #@! TO.C,J1*
X308600000Y-7400000D02*
G75*
G03*
X308600000Y-7400000I-200000J0D01*
G01*
D16*
X317350000Y-15000000D02*
X316080000Y-13730000D01*
X316080000Y-16270000D02*
X317350000Y-15000000D01*
X317350000Y-15000000D02*
X317350000Y-6110000D01*
X317350000Y-23890000D02*
X317350000Y-15000000D01*
D13*
G04 #@! TO.C,C14*
X262710000Y-15258578D02*
X262710000Y-14741422D01*
X261290000Y-15258578D02*
X261290000Y-14741422D01*
G04 #@! TO.C,C13*
X247210000Y-15258578D02*
X247210000Y-14741422D01*
X245790000Y-15258578D02*
X245790000Y-14741422D01*
G04 #@! TO.C,C12*
X168241422Y-22085000D02*
X168758578Y-22085000D01*
X168241422Y-20665000D02*
X168758578Y-20665000D01*
G04 #@! TO.C,C11*
X168991422Y-12210000D02*
X169508578Y-12210000D01*
X168991422Y-10790000D02*
X169508578Y-10790000D01*
G04 #@! TO.C,C10*
X151258578Y-18790000D02*
X150741422Y-18790000D01*
X151258578Y-20210000D02*
X150741422Y-20210000D01*
G04 #@! TO.C,C9*
X162508578Y-22165000D02*
X161991422Y-22165000D01*
X162508578Y-23585000D02*
X161991422Y-23585000D01*
G04 #@! TO.C,C8*
X25821422Y-15710000D02*
X26338578Y-15710000D01*
X25821422Y-14290000D02*
X26338578Y-14290000D01*
G04 #@! TO.C,C6*
X273290000Y-14741422D02*
X273290000Y-15258578D01*
X274710000Y-14741422D02*
X274710000Y-15258578D01*
G04 #@! TO.C,C4*
X159008578Y-22165000D02*
X158491422Y-22165000D01*
X159008578Y-23585000D02*
X158491422Y-23585000D01*
G04 #@! TO.C,C3*
X167790000Y-14741422D02*
X167790000Y-15258578D01*
X169210000Y-14741422D02*
X169210000Y-15258578D01*
G04 #@! TO.C,C2*
X147258578Y-16290000D02*
X146741422Y-16290000D01*
X147258578Y-17710000D02*
X146741422Y-17710000D01*
G04 #@! TO.C,C1*
X147258578Y-12290000D02*
X146741422Y-12290000D01*
X147258578Y-13710000D02*
X146741422Y-13710000D01*
G04 #@! TD*
M02*
