M48
; DRILL file {KiCad 5.1.7-a382d34a8~87~ubuntu20.04.1} date Mon Nov  2 06:51:38 2020
; FORMAT={-:-/ absolute / metric / decimal}
; #@! TF.CreationDate,2020-11-02T06:51:38-08:00
; #@! TF.GenerationSoftware,Kicad,Pcbnew,5.1.7-a382d34a8~87~ubuntu20.04.1
FMAT,2
METRIC
T1C0.400
T2C1.016
T3C3.600
%
G90
G05
T1
X21.25Y-26.5
X22.5Y-26.5
X23.75Y-26.5
X32.0Y-17.0
X42.5Y-19.0
X44.5Y-19.5
X125.012Y-14.612
X125.75Y-13.0
X143.75Y-11.25
X144.0Y-19.0
X145.99Y-18.51
X148.75Y-15.0
X150.0Y-15.0
X151.25Y-19.5
X152.357Y-8.982
X153.16Y-22.3
X155.0Y-13.646
X155.25Y-18.25
X155.5Y-17.25
X155.7Y-22.3
X155.707Y-11.275
X155.775Y-8.982
X157.96Y-8.952
X158.0Y-10.0
X158.24Y-22.3
X159.02Y-10.005
X159.644Y-19.592
X160.0Y-15.0
X160.005Y-10.177
X160.956Y-10.508
X161.0Y-23.25
X163.422Y-11.725
X163.5Y-18.5
X164.181Y-11.075
X164.861Y-12.775
X164.897Y-15.708
X164.922Y-16.708
X165.0Y-23.25
X165.181Y-11.075
X166.772Y-19.02
X167.113Y-15.205
X168.75Y-11.5
X170.08Y-15.93
X183.0Y-10.058
X194.0Y-10.0
X194.5Y-13.0
X203.0Y-19.0
X204.0Y-21.0
X281.25Y-17.75
X305.13Y-20.22
X305.13Y-21.42
T2
X37.52Y-13.75
X37.52Y-16.29
X40.06Y-13.75
X40.06Y-16.29
X42.6Y-13.75
X42.6Y-16.29
X277.52Y-13.75
X277.52Y-16.29
X280.06Y-13.75
X280.06Y-16.29
X282.6Y-13.75
X282.6Y-16.29
X197.52Y-13.75
X197.52Y-16.29
X200.06Y-13.75
X200.06Y-16.29
X202.6Y-13.75
X202.6Y-16.29
X117.52Y-13.75
X117.52Y-16.29
X120.06Y-13.75
X120.06Y-16.29
X122.6Y-13.75
X122.6Y-16.29
T3
X4.0Y-3.0
X4.0Y-27.0
X316.0Y-3.0
X316.0Y-27.0
T0
M30
